<svg width="67" height="71" viewBox="0 0 67 71" fill="none" xmlns="http://www.w3.org/2000/svg">
<g clip-path="url(#clip0_931_4722)">
<path d="M65.3025 35.6415C64.3645 35.6415 63.6051 36.4044 63.6051 37.3467C63.6051 45.4247 60.4742 53.0201 54.787 58.7321C49.1011 64.4442 41.5404 67.5895 33.4994 67.5895C25.4584 67.5895 17.8977 64.4442 12.2118 58.7321C6.52585 53.0201 3.39495 45.4247 3.39495 37.3467C3.39495 29.2688 6.52585 21.6734 12.2118 15.9614C17.8977 10.2493 25.4584 7.10404 33.4994 7.10404C37.2502 7.10404 40.8689 7.77857 44.2966 9.10742L39.7109 15.0974L58.5013 17.6022L51.2688 0L46.448 6.29688C42.3577 4.56761 38.0134 3.69223 33.4994 3.69223C24.5518 3.69223 16.1386 7.19246 9.81141 13.5487C3.48423 19.9062 0 28.3568 0 37.3467C0 46.3367 3.48423 54.7873 9.81141 61.1435C16.1386 67.4998 24.5518 71 33.4994 71C42.447 71 50.8602 67.4998 57.1873 61.1435C63.5145 54.7873 66.9988 46.3354 66.9988 37.3467C66.9988 36.4044 66.2393 35.6415 65.3013 35.6415H65.3025Z" fill="white" stroke="white"/>
</g>
<defs>
<clipPath id="clip0_931_4722">
<rect width="67" height="71" fill="white"/>
</clipPath>
</defs>
</svg>
