<?xml version="1.0" encoding="utf-8"?>
<!-- Generator: Adobe Illustrator 26.0.2, SVG Export Plug-In . SVG Version: 6.00 Build 0)  -->
<svg version="1.1" id="Layer_1" xmlns="http://www.w3.org/2000/svg" xmlns:xlink="http://www.w3.org/1999/xlink" x="0px" y="0px"
	 viewBox="0 0 1913 1364" style="enable-background:new 0 0 1913 1364;" xml:space="preserve">
<style type="text/css">
	.st0{fill:url(#SVGID_1_);}
	.st1{fill:url(#SVGID_00000057137740350043084780000017846811745442702765_);}
	.st2{fill:url(#SVGID_00000117677055187214775950000014875879758980187565_);}
	.st3{fill:url(#SVGID_00000110434812059391614000000009617799576729936530_);}
	.st4{fill:url(#SVGID_00000090260760237969045530000001712098509089054644_);}
	.st5{fill:url(#SVGID_00000170261779475584127080000002231226642913081741_);}
	.st6{fill:url(#SVGID_00000119815430941115576610000000529270566157366408_);}
	.st7{fill:url(#SVGID_00000077314552404687740500000014608354850760203663_);}
	.st8{fill:url(#SVGID_00000054258301900467826290000013515988013158050994_);}
	.st9{fill:url(#SVGID_00000028300418838308859280000013550447627800099979_);}
	.st10{fill:url(#SVGID_00000150804728323891463940000002180007398736208519_);}
	.st11{fill:url(#SVGID_00000111908189612546321580000006706532930842991792_);}
	.st12{fill:url(#SVGID_00000022539275886092156530000008263675043923589800_);}
	.st13{fill:url(#SVGID_00000168086153961147786710000004455540644606130061_);}
	.st14{fill:url(#SVGID_00000121237931435211183520000007803788011345383863_);}
	.st15{fill:url(#SVGID_00000180337515272374717540000009376232303925186957_);}
	.st16{fill:url(#SVGID_00000155148810032243950490000007069485481618233742_);}
	.st17{fill:url(#SVGID_00000068643657421493213670000017232499979114814655_);}
	.st18{fill:url(#SVGID_00000062894752403827353020000011229320949429296317_);}
	.st19{fill:#4FEAEC;}
	.st20{font-family:'Bayshore';}
	.st21{font-size:424.6628px;}
</style>
<g>
	<g>
		<linearGradient id="SVGID_1_" gradientUnits="userSpaceOnUse" x1="143.7114" y1="669.7217" x2="1977.2715" y2="669.7217">
			<stop  offset="0" style="stop-color:#FFFFFF;stop-opacity:0"/>
			<stop  offset="1" style="stop-color:#000000;stop-opacity:0"/>
		</linearGradient>
		<path class="st0" d="M470.1,328c2,0,2.8,1.5,2.5,4.4c-0.4,2.9-1.4,6.4-3,10.4c-1.6,4.1-3.5,8.3-5.5,12.7c-2,4.4-3.9,8.1-5.5,11.2
			L440.4,404c-3.2,6.1-6.4,12.2-9.5,18.3c-3.1,6.1-6.1,12.3-9.1,18.6c-2,4.5-4.1,9.1-6.2,13.6c-2.2,4.5-4.4,9.1-6.7,13.7
			c4.2-0.5,8.4-1.1,12.4-1.7c4.1-0.6,8-1.3,11.9-2.1c3.1-0.4,6.3-0.8,9.7-1.2c3.4-0.4,6.6-0.5,9.8-0.3c1.4,0.1,3.2,0.3,5.2,0.6
			c2,0.3,4,0.9,5.8,1.6c1.8,0.8,3.2,1.9,4,3.4c0.9,1.5,0.9,3.2,0,5.3c-1,1.5-2.4,2.3-4.4,2.3c-2,0-3.7-0.3-5.2-0.6
			c-1.5-0.7-2.8-1.7-3.8-3c-1.2-0.1-2.3-0.1-3.4,0c-1.1,0.1-2.3,0.3-3.4,0.4l-1.3,0.2l-2.1,0.3l-3.8,0.5c-4.2,0.5-8.4,1-12.6,1.5
			c-4.2,0.5-8.4,1.2-12.6,2c-2,0.2-3.9,0.5-5.7,0.9c-1.8,0.4-3.7,0.7-5.7,0.9c-2.7,6-5.4,12.1-8.3,18.1c-2.8,6.1-5.6,12.1-8.3,18.1
			c-5.6,12.7-11,25.2-16.3,37.7c-5.3,12.5-10.5,25-15.5,37.6l-10,26.5c-1,3.3-1.9,6.4-2.7,9.5c-0.8,3.1-1.7,6.3-2.7,9.5
			c0.2,1.7-0.4,3-1.7,3.8c-1.3,0.9-2.9,1.4-4.7,1.4c-1.8,0.1-3.6-0.3-5.3-1.1c-1.7-0.8-2.6-2-2.8-3.7c-0.4-3.1-0.1-6.3,1-9.5
			c1-3.3,2.1-6.2,3.2-8.9c3.5-10.7,7.4-21.3,11.5-31.8c4.1-10.5,8.4-21,12.8-31.5c5-12.3,10.3-24.4,15.9-36.4
			c5.5-11.9,11.1-24.1,16.7-36.5c-5.6,1.3-11.3,2.3-17.2,3.2c-5.9,0.9-11.7,1.9-17.6,3.2c-9.8,1.8-19.5,3.6-29.3,5.5
			c-9.8,1.9-19.5,3.7-29.3,5.5c-3.6,7.9-7.1,15.7-10.6,23.5c-3.5,7.8-7,15.7-10.6,23.5l-31.6,73.6c-3.3,7.8-6.6,15.7-9.9,23.7
			c-3.3,8-6.5,16-9.5,24c2.8,1.7,3.6,3.6,2.4,5.7c-1.6,3.6-3.2,7.1-4.9,10.4c-1.7,3.3-3.8,6.7-6.2,10.2c-0.9,1.5-2.4,2.3-4.2,2.2
			c-1.9-0.1-3.5-0.3-5-0.7c-1.2-0.4-2.4-1.1-3.7-1.9c-1.2-0.9-1.7-2-1.3-3.5c4.2-14.5,9.2-28.6,14.9-42.3
			c5.7-13.7,11.5-27.3,17.2-40.8c5.3-12.4,10.6-24.6,15.8-36.8c5.2-12.2,10.6-24.6,16.2-37.3l13.8-30.4c-0.8,0.4-2.2,0.7-4.2,0.9
			l-41.4,7.6c-7,1.4-13.9,2.7-20.7,3.8c-6.9,1.1-13.8,2.1-20.8,3c-1.4,0.2-2.9,0.1-4.5-0.3c-1.6-0.4-2.8-1.2-3.5-2.6
			c-0.7-1.3-0.7-2.4,0-3.2c0.8-0.8,1.8-1.3,3.2-1.5c6.4-1.4,12.7-2.5,18.8-3.6c6.1-1,12.4-2.2,18.8-3.6c10-1.8,20-3.7,29.9-5.6
			c9.9-1.9,19.7-3.9,29.4-6l15.1-33.9l35.7-75l17.6-34.7l8.2-17.3l4.1-8.6l2.1-3.7c0.1-1.4,0.8-2.5,2.2-3.1c1.4-0.6,2.8-0.8,4.4-0.8
			c1.6,0.1,3,0.6,4.2,1.4c1.2,0.9,2,2,2.1,3.4c0.2,1.4,0,2.6-0.4,3.7c-0.4,1.1-0.9,2.3-1.2,3.8l-2,4.5l-4,9l-8.9,17.8L342,396.4
			c-7.2,15.4-14.5,30.8-21.7,46.1c-7.3,15.3-14.5,30.7-21.7,46.1L375,474c3.1-0.7,5.9-1.2,8.6-1.5c2.7-0.3,5.4-0.8,8.2-1.4
			l13.2-28.6c3.2-6.4,6.3-12.6,9.3-18.7c3-6.1,6.1-12.1,9.3-18.3c3.2-6.1,6.3-12.3,9.3-18.5c2.9-6.2,5.9-12.5,8.8-18.8l17-35.5
			l-0.1-0.8c0.5-3.2,1.9-4.8,4.3-4.8C465.3,327.2,467.7,327.5,470.1,328z"/>
		
			<linearGradient id="SVGID_00000008140041440667640360000000152962084165767574_" gradientUnits="userSpaceOnUse" x1="143.7114" y1="669.7217" x2="1977.2715" y2="669.7217">
			<stop  offset="0" style="stop-color:#FFFFFF;stop-opacity:0"/>
			<stop  offset="1" style="stop-color:#000000;stop-opacity:0"/>
		</linearGradient>
		<path style="fill:url(#SVGID_00000008140041440667640360000000152962084165767574_);" d="M595.1,458.2c1.2,0.4,2.4,1.2,3.7,2.3
			c1.3,1.1,1.4,2.2,0.4,3.2c-6.3,7-12.4,13.8-18.3,20.2c-5.9,6.4-12.5,12.7-19.7,18.7c-3.4,2.7-6,4.9-7.9,6.7
			c-1.9,1.8-4.2,3.6-6.8,5.3c-7.8,5.8-13.6,9.8-17.4,12c-3.7,2.2-7.1,3.7-10.1,4.7c-5,1.2-10.4,1.6-16.1,1.3
			c-5.7-0.3-10.3-2.7-13.7-7.1c-2-2.3-3.1-5-3.4-8.1c-0.2-3.1-0.1-6.3,0.3-9.5c-1.7,2.5-3.5,4.9-5.3,7.1c-1.9,2.2-3.8,4.6-5.8,7.1
			c-2,2.2-3.8,4.6-5.3,7.1c-1.6,2.5-3.4,4.5-5.4,6.2c-2.7,3.2-6.4,5.9-11,8.2c-2.4,1.4-5,2.3-7.8,2.5c-2.8,0.2-5.8-0.5-8.8-2.1
			c-2.1-1.2-3.8-2.9-4.9-5.2c-1.1-2.3-1.8-4.5-2.1-6.8c-0.4-5.4,0.4-10.4,2.4-15.1c2-4.7,4.3-9.2,6.9-13.5c2.9-4.6,5.9-9.1,9.3-13.3
			c3.3-4.3,7.1-8.2,11.2-11.9c5.4-4.9,12.4-9.5,21-13.7c1.3-0.7,3-1.4,4.9-1.9c1.9-0.5,3.8-0.7,5.5-0.7c2,0.3,4.1,1.1,6.3,2.4
			c2.2,1.3,2.8,3.2,2,5.5c-0.4,1.5-1.3,2.4-2.7,2.7c-1.4,0.3-2.8,0.3-4.3-0.1c-0.9-0.5-2-0.5-3.2-0.2c-1.2,0.3-2.1,0.6-2.7,1
			c-5.8,3.6-11.7,8-17.6,13.3c-2.3,2.6-4.7,5.4-7.3,8.4c-2.6,3-5,6.2-7.2,9.6c-2.1,3.4-4.2,6.9-6.2,10.4c-2,3.5-3.4,7.3-4.4,11.4
			c-0.4,1.8-0.6,3.6-0.6,5.4c-0.1,1.9,0.3,3.6,1.1,5.2c0.6-0.1,1-0.3,1.2-0.6c4.2-2.8,8-6.1,11.4-10c3.4-3.8,6.8-8.2,10.1-13.2
			l21.2-29.1l11.6-13.4l0.4-0.5c1.2-2.1,2.5-4.2,4-6c1.5-1.9,2.8-3.9,4-6c0.7-0.9,1.8-1.6,3.2-1.9c1.4-0.3,2.8-0.3,4.3-0.1
			c1.5,0.2,2.7,0.8,3.8,1.7c1.1,0.9,1.7,1.9,1.9,3l0.1,0.4c0.1,1.1-0.4,2.8-1.5,4.9c-1.2,2.1-2.5,4.4-4.1,6.7
			c-1.6,2.3-3.2,4.7-4.9,7c-1.7,2.3-2.9,4.3-3.6,5.8c-0.4,1.2-0.9,2.3-1.5,3.4c-0.6,1.1-1.1,2.2-1.5,3.4c-1.1,2.7-2,5.5-2.8,8.3
			c-0.8,2.8-1.3,5.4-1.6,7.7c-1.5,6.2-0.8,10.6,2.3,13.2c3,2.6,7,2.9,11.9,0.9c4-1.9,7.8-4.1,11.4-6.5c3.6-2.4,7.4-5,11.7-7.8
			c9.7-6.9,18.5-14.5,26.3-22.9c7.8-8.4,15.7-17,23.8-26c1.3-1,2.7-1.5,4.3-1.6C592.5,457.6,593.9,457.8,595.1,458.2z"/>
		
			<linearGradient id="SVGID_00000155847069796160145740000000049080891468740482_" gradientUnits="userSpaceOnUse" x1="143.7114" y1="669.7217" x2="1977.2715" y2="669.7217">
			<stop  offset="0" style="stop-color:#FFFFFF;stop-opacity:0"/>
			<stop  offset="1" style="stop-color:#000000;stop-opacity:0"/>
		</linearGradient>
		<path style="fill:url(#SVGID_00000155847069796160145740000000049080891468740482_);" d="M592.8,453.3c3.5-1.8,6.6-1.7,9.5,0.6
			c0.6,0.5,0.8,1.7,0.4,3.6c-0.3,1.9-0.9,4.1-1.5,6.6c-0.7,2.5-1.6,5-2.7,7.4c-1.1,2.4-2,4.4-2.7,5.9c5.1-4.6,10.5-9.3,16-13.9
			c5.6-4.7,11.5-9.2,17.8-13.7l2.4-1.6l3.6-2.2c2.9-1.8,5.8-3.3,8.6-4.5c2.8-1.2,5.8-2.3,8.8-3.2l0.4-0.1c0.8-0.1,1.8-0.4,2.9-0.8
			c1.4-0.2,2.7-0.3,3.8-0.5c1.1-0.1,2-0.1,2.6,0.1c2,0.3,4,1,6,2c2,1,2.9,3,2.6,5.9c-0.6,1.8-2.2,2.7-4.8,2.7
			c-2.6,0-4.7-0.1-6.5-0.5c-3.1,0.4-6.9,1.8-11.4,4.4c-4.5,2.8-8.5,5.5-11.9,7.9l-4,2.6l-7.4,5.6l-4.3,3.5l-9.4,7.1l-6.9,6.8
			l-9.3,11.4l-8.6,10l-8.4,12.1c-0.9,2.1-1.6,3.7-2.2,4.8c-0.6,1.1-1.4,2.8-2.6,5.2c-0.4,1.2-0.8,1.9-1,2.3
			c-0.5,0.9-1.6,1.3-3.5,1.3c-1.9-0.1-3.2-0.2-4.1-0.4c-1.2-0.4-2.4-1.3-3.5-2.6c-1.2-1.3-1.5-2.4-1-3.3l4.1-8.2
			c1.6-3.3,2.9-6,3.9-8c1-2,1.9-3.7,2.6-5c0.7-1.4,1.3-2.7,1.9-4.1c0.5-1.4,1.1-2.9,1.8-4.7l1.9-5.4l6.9-17.1
			c1-3.8,2.2-7.7,3.7-11.6C589,458.2,590.8,455.3,592.8,453.3z"/>
		
			<linearGradient id="SVGID_00000119808103070763380340000001958196366084233601_" gradientUnits="userSpaceOnUse" x1="143.7114" y1="669.7217" x2="1977.2715" y2="669.7217">
			<stop  offset="0" style="stop-color:#FFFFFF;stop-opacity:0"/>
			<stop  offset="1" style="stop-color:#000000;stop-opacity:0"/>
		</linearGradient>
		<path style="fill:url(#SVGID_00000119808103070763380340000001958196366084233601_);" d="M675,443.2c3.5-1.8,6.6-1.7,9.5,0.6
			c0.6,0.5,0.8,1.7,0.4,3.6c-0.3,1.9-0.9,4.1-1.5,6.6c-0.7,2.5-1.6,5-2.7,7.4c-1.1,2.4-2,4.4-2.7,5.9c5.1-4.6,10.5-9.3,16-13.9
			c5.6-4.7,11.5-9.2,17.8-13.7l2.4-1.6l3.6-2.2c2.9-1.8,5.8-3.3,8.6-4.5c2.8-1.2,5.8-2.3,8.8-3.2l0.4-0.1c0.8-0.1,1.8-0.4,2.9-0.8
			c1.4-0.2,2.7-0.3,3.8-0.5c1.1-0.1,2-0.1,2.6,0.1c2,0.3,4,1,6,2c2,1,2.9,3,2.6,5.9c-0.6,1.8-2.2,2.7-4.8,2.7
			c-2.6,0-4.7-0.1-6.5-0.5c-3.1,0.4-6.9,1.8-11.4,4.4c-4.5,2.8-8.5,5.5-11.9,7.9l-4,2.6l-7.4,5.6l-4.3,3.5l-9.4,7.1l-6.9,6.8
			l-9.3,11.4l-8.6,10l-8.4,12.1c-0.9,2.1-1.6,3.7-2.2,4.8c-0.6,1.1-1.4,2.8-2.6,5.2c-0.4,1.2-0.8,1.9-1,2.3
			c-0.5,0.9-1.6,1.3-3.5,1.3c-1.9-0.1-3.2-0.2-4.1-0.4c-1.2-0.4-2.4-1.3-3.5-2.6c-1.2-1.3-1.5-2.4-1-3.3l4.1-8.2
			c1.6-3.3,2.9-6,3.9-8c1-2,1.9-3.7,2.6-5c0.7-1.4,1.3-2.7,1.9-4.1c0.5-1.4,1.1-2.9,1.8-4.7l1.9-5.4l6.9-17.1
			c1-3.8,2.2-7.7,3.7-11.6C671.2,448.1,673,445.2,675,443.2z"/>
		
			<linearGradient id="SVGID_00000178886745354362593750000000779853202152569225_" gradientUnits="userSpaceOnUse" x1="143.7114" y1="669.7217" x2="1977.2715" y2="669.7217">
			<stop  offset="0" style="stop-color:#FFFFFF;stop-opacity:0"/>
			<stop  offset="1" style="stop-color:#000000;stop-opacity:0"/>
		</linearGradient>
		<path style="fill:url(#SVGID_00000178886745354362593750000000779853202152569225_);" d="M1117,481.8c2.9,0.5,6.2,1.3,9.7,2.3
			c3.5,1,6.9,2.4,9.9,4.2c3.1,1.8,5.5,4,7.3,6.8c1.8,2.8,2.3,6.1,1.6,9.9c-0.4,1.8-1.4,2.9-3,3.4c-1.7,0.5-3.4,0.6-5.3,0.2
			c-1.9-0.3-3.5-1-4.9-2c-1.4-1-1.9-2.3-1.6-4.1c0.2-0.6,0.2-1.6,0.1-3c-0.2-1.4-0.6-2.4-1.2-2.8c-3.4-2.4-7.6-4.1-12.6-5.1
			c-5-1-10.2-1.6-15.8-1.9c-5.6-0.3-11.2-0.3-16.9-0.1c-5.7,0.3-10.9,0.5-15.7,0.9c-26.9,1.3-53.9,4.6-80.9,9.9
			c-5.8,1.3-11.7,2.5-17.7,3.7c-6,1.2-11.9,2.4-17.7,3.7c-6.1,1.3-12.1,2.8-18.1,4.4c-5.9,1.6-12.1,3.2-18.4,4.8
			c-25.1,6.8-49.7,14.4-73.8,22.7c-24.1,8.4-48.2,17.2-72.5,26.4c-3,8.1-6.4,16.5-10.2,25.2c-3.1,7.2-6.2,14.5-9.3,21.7
			c-3.1,7.2-6.6,14.4-10.6,21.4c-3.5,6.1-7.4,11.9-11.6,17.2c-4.2,5.4-9.4,9.7-15.5,13c-4.5,2.5-9.4,4-14.7,4.4
			c-5.2,0.4-10.1-0.8-14.7-3.3c-4-2.1-6.9-5.1-8.8-9c-1.9-3.9-2.7-8.2-2.4-12.8c0-4.9,0.8-9.6,2.5-14.2c1.7-4.6,3.6-9.1,5.6-13.3
			c4.2-7.6,9.7-15,16.5-22.1c6.6-6.5,14-12.2,22.1-17c8.1-4.8,16.5-9.2,25.1-13.1c2.2-0.8,4.4-1.8,6.7-2.7c2.3-1,4.7-1.9,7.1-2.8
			l3.8-10.7l0.4-0.5c1.8-6.2,3.8-12.4,6.1-18.7c2.2-6.2,4.5-12.4,6.9-18.5c1-3.3,2-6.3,2.9-9.1c0.9-2.8,1.9-5.9,2.9-9.1
			c-2,2-4.2,3.9-6.3,5.9c-2.2,2-4.5,3.8-6.8,5.5c-2.4,1.7-5,3.2-7.8,4.6c-2.8,1.3-5.8,1.9-9,1.7c-7.5-0.8-12.4-4.8-14.7-11.9
			c-1.5-5.5-1.6-10.9-0.3-16.2c2.1-6.5,4.4-13.1,7-19.7c1.9-5.1,4.1-10.3,6.4-15.5c2.3-5.3,4.3-10.4,6-15.5c0.4-1.5,1.4-2.5,3.1-2.9
			c1.7-0.5,3.4-0.6,5.1-0.2c1.8,0.4,3.3,1,4.5,2c1.3,1,1.8,2.2,1.7,3.6c-0.4,1.2-0.8,2.3-1.1,3.3c-0.3,1-0.7,2-1.1,2.9
			c-0.9,2.1-1.8,4.2-2.6,6.3c-0.9,2.1-1.8,4.2-2.6,6.3c-1.8,4.2-3.5,8.5-5.3,12.8c-1.8,4.4-3.4,9.1-5.1,14.1c-0.7,3.2-1.4,6.2-2.1,9
			c-0.7,2.8-0.3,6.1,1,9.9c2,0,5.3-2,9.9-6.1c4.6-4.1,8.4-8.1,11.4-11.9c2.7-3.5,5.2-6.8,7.5-10.1c2.3-3.3,4.7-6.6,7.1-10.1
			c1.9-3.1,3.8-6,5.8-8.8c1.9-2.8,3.9-5.6,5.8-8.4c2-2.5,3.9-5,5.7-7.5c1.8-2.5,3.7-5,5.7-7.5c1.2-2.1,2.3-4.1,3.6-5.8
			c1.2-1.7,2.9-3,5.1-3.8c3-0.9,5.6-0.7,7.8,0.8c0.9,0.5,1.7,1.2,2.4,2.3c0.7,1.1,0.7,2.1-0.1,3c-1.2,1.6-2.5,3.2-3.9,4.8
			c-1.4,1.6-2.7,3.8-4.1,6.5c-1.1,2.4-2.3,5-3.5,7.7c-1.2,2.7-2.4,5.4-3.5,8.1c-2.5,5.2-4.9,10.4-7,15.8c-2.2,5.4-4.5,10.7-7,15.8
			c-0.5,0.6-0.8,1.2-0.8,1.8c-0.1,0.6-0.4,1.2-0.8,1.8c-2.9,8.6-5.9,17.5-8.9,26.5c-3,9-6.1,17.9-9.4,26.6c-0.6,2.1-1.3,4.1-2,6
			c-0.8,1.9-1.6,4-2.5,6.1c12.8-4.7,25.5-9.3,37.9-13.8c12.4-4.5,25.1-8.8,38-13c12.1-3.8,24-7.5,35.9-11.1
			c11.8-3.6,23.9-7.1,36.4-10.4c24.4-5.9,49-11.1,73.8-15.7c13.7-2.5,27.4-4.5,41.2-5.9c13.8-1.4,27.8-2.1,42.1-2.2
			c6.2-0.2,12.5-0.2,18.8-0.1C1104.6,479.7,1110.8,480.5,1117,481.8z M742.8,595.4c1.8-3.9,3.7-8.2,5.7-12.7c2-4.5,3.6-8,4.7-10.4
			c-4.6,2-9.2,4.1-13.8,6.4c-4.6,2.3-8.8,4.6-12.8,7.1c-7.9,5-15,10.6-21,16.9c-6.1,6.3-11,13.7-14.8,22.1
			c-4.8,10-6.8,17.9-6.1,23.6c0.7,5.8,2.9,9.2,6.6,10.3c3.7,1.1,8.4-0.2,14.1-3.9c5.7-3.7,11.3-10,16.7-18.9
			C729.7,623.4,736.6,609.8,742.8,595.4z"/>
		
			<linearGradient id="SVGID_00000054252357284738276900000005825397832979674516_" gradientUnits="userSpaceOnUse" x1="143.7114" y1="669.7217" x2="1977.2715" y2="669.7217">
			<stop  offset="0" style="stop-color:#FFFFFF;stop-opacity:0"/>
			<stop  offset="1" style="stop-color:#000000;stop-opacity:0"/>
		</linearGradient>
		<path style="fill:url(#SVGID_00000054252357284738276900000005825397832979674516_);" d="M1395.3,157.5c-0.9,1.1-2,1.7-3.4,1.9
			c-2.2,0.8-4.6,0.7-7.3-0.4c-0.5,0.4-1,0.7-1.4,1c-0.4,0.3-1,0.8-1.7,1.5c-1.8,1.7-3.4,3.2-4.8,4.6c-1.4,1.5-2.8,3-4.4,4.6
			c-7.2,9.2-14.4,18.1-21.7,26.8c-7.3,8.7-14.6,17.8-21.7,27.3l-24.3,32.1c-3.4,5.3-6.7,10.2-9.9,14.9c-3.3,4.7-6.6,9.7-9.9,14.9
			c-6,9.3-11.6,18.5-16.7,27.5c-5.2,9.1-10.3,18.4-15.4,28.2c-5.1,9.8-10.3,20.3-15.6,31.6c-5.3,11.3-11,24-17,37.8
			c-8.6,20.5-15.4,41.5-20.5,63.3c-2.6,11.2-4.9,22.7-6.9,34.6c-2,11.9-1.9,23.9,0.1,35.9c1.6,1.8,2.6,3.7,2.8,5.6
			c0.8,2.2,0.1,3.6-2.3,4.1c-2.4,0.6-4.3,0.8-5.7,0.7c-5-1.1-9-3-12-5.6c-3-2.6-5.4-5.9-7.2-9.8c-1.8-3.9-2.9-8.2-3.5-12.8
			c-0.6-4.6-1-9.5-1.4-14.6c-1-12.7-1.2-25.4-0.6-38c0.6-12.6,1.7-25.2,3.3-37.6c1.6-12.2,3.7-24.2,6.1-36
			c2.4-11.8,4.7-23.9,6.9-36.1c1.5-6.7,3-13.6,4.5-20.7c1.6-7,3.1-13.9,4.5-20.7c-3.2,4.4-6.2,8.5-9,12.2c-2.8,3.8-5.5,7.8-8.1,12.1
			c-12,18.3-23,36.8-33,55.4c-5.6,10.4-10.9,20.8-15.9,31.2c-5,10.5-9.4,20.9-13.3,31.4c-3.7,9.3-6.8,18.9-9.3,28.9
			c-2.5,10-3.7,20.1-3.5,30.4c0.1,0.8,0.1,1.7,0.1,2.6c0,0.9,0,1.6,0,2.1c0.3,2.2-0.6,3.6-2.5,4.2c-1.9,0.5-3.8,0.6-5.5,0.2
			c-0.8,0.1-2.2-0.2-4-1c-1.8-0.8-2.7-1.9-2.5-3.3l-0.2-1.3l-0.1-0.4c-0.7-7.9-1-15.6-0.9-23.2c0.1-7.6,0.3-15.2,0.8-23
			c1.5-13.3,3.4-26.7,5.5-40.3c2.2-13.5,4.5-27,6.8-40.4c1.1-5.3,2.8-13.3,5.2-24.2c2.4-10.8,4.5-22.5,6.4-35
			c1.9-12.5,3.2-24.8,3.8-37c0.6-12.2-0.2-22.2-2.4-30.1c-2.2-7.9-6.5-12.5-12.6-14.1c-6.2-1.5-15.2,2-26.9,10.6
			c-7.6,5.8-14,12.8-19.5,21c-5.4,8.2-10,16.8-13.7,25.9c-3.2,6.1-5.8,13.1-7.7,20.8c-1.9,7.8-3.6,15.2-5,22.2
			c-1.1,5-1.9,9.9-2.5,14.6c-0.6,4.8-0.9,9.7-1.2,14.9l0.1,0.4l0.3,2.1c0.1,1.1,1,2.1,2.5,2.9c1.5,0.8,1.7,2,0.4,3.6
			c-0.7,1.5-1.9,2.3-3.8,2.4c-1.8,0.1-3.5-0.1-5-0.5c-3.5-1-5.9-2.8-7.1-5.5c-1.2-2.7-1.8-5.6-1.9-8.7c0.1-3.7,0.3-7.2,0.7-10.3
			c0.3-3.2,0.7-6.4,1.2-9.6l4.2-18.1c0.6-2.3,1.1-4.2,1.7-5.6c0.5-1.3,1-2.8,1.4-4.2l4.7-13.8c3.4-9.5,7.5-18.7,12.2-27.6
			c4.8-8.9,10.4-17,16.9-24.3c3.2-3.8,6.7-7.2,10.5-10.3c3.8-3,7.6-5.8,11.6-8.3c3-1.5,6.3-2.8,10-3.8c3.7-1,7.5-1.6,11.4-1.6
			c3.8,0,7.5,0.4,11.1,1.4c3.5,1,6.8,2.9,9.7,5.7c3.9,3.8,6.9,8.9,9.1,15.1c2.2,6.3,3.5,12.7,4.1,19.2c0.5,6.5,0.4,12.9-0.2,19.3
			c-0.6,6.6-1.2,12.3-1.8,16.9c-0.6,4.6-1.4,9.6-2.5,14.8c-2.5,14.3-5.1,28.6-7.6,42.9c-2.5,14.3-4.9,28.6-7.2,42.8
			c-0.3,2.6-0.6,5.2-1,7.8c-0.4,2.6-0.7,5.1-1,7.4c2-4.5,4.1-9.1,6.2-13.6c2.2-4.5,4.3-8.9,6.3-13.2c5.7-11.3,11.7-22.3,17.8-33.2
			c6.1-10.9,12.5-21.7,19.1-32.5l10.8-16.3c3.1-4.9,6.7-10.1,10.9-15.5c3.5-4.4,6.8-8.7,10-13c3.2-4.2,7.5-7.8,12.8-10.8
			c1.3-0.7,2.8-1.1,4.4-1c1.6,0.1,3.1,0.5,4.6,1.1c0.6,0.5,1.4,1.2,2.2,2.1c0.8,0.9,1.1,1.8,1,2.7c-2.6,11.2-5.1,22.3-7.5,33.4
			c-2.3,11.1-4.4,22.2-6.2,33.3c-2.5,12-5.1,23.8-7.6,35.4c-2.6,11.6-4.5,23.4-5.9,35.6c-1.8,11.1-2.9,22-3.2,32.9
			c-0.4,10.9-0.3,22,0.2,33.3c3.1-23.2,8.7-45.6,16.6-67.1c3.3-10.7,7-21.2,11.1-31.5c4.1-10.3,8.7-20.7,13.7-31
			c2.5-5.2,4.6-9.5,6.3-13.2c1.7-3.6,3.6-7.6,5.6-11.8c2-4.2,4.6-9.2,7.6-14.8c3-5.6,7.2-13.1,12.7-22.3
			c6.1-10.4,12.5-20.8,19.1-31.2c6.6-10.4,13.4-20.5,20.4-30.5c7.5-10.9,15.3-21.6,23.5-32c8.1-10.4,16.4-20.8,24.8-31.3
			c3-3.8,6-7.7,9.2-11.8c3.2-4.1,6.5-8.1,9.9-11.9c3.4-3.8,6.8-7.3,10.3-10.5c3.5-3.1,7.2-5.5,11.3-7.2c1.9-0.8,3.9-1.1,6.1-0.7
			c2.2,0.3,4.1,1.5,5.8,3.6l2.2,3.6C1396,155.1,1396.2,156.4,1395.3,157.5z"/>
		
			<linearGradient id="SVGID_00000151506823636772960670000008874688692213581217_" gradientUnits="userSpaceOnUse" x1="143.7114" y1="669.7217" x2="1977.2715" y2="669.7217">
			<stop  offset="0" style="stop-color:#FFFFFF;stop-opacity:0"/>
			<stop  offset="1" style="stop-color:#000000;stop-opacity:0"/>
		</linearGradient>
		<path style="fill:url(#SVGID_00000151506823636772960670000008874688692213581217_);" d="M1404.3,354.7c0.7-0.9,1.8-1.4,3.3-1.3
			c1.4,0.1,2.8,0.5,4,1c1.2,0.6,2.1,1.4,2.7,2.5c0.6,1.1,0.3,2.1-0.7,3.1c-0.2,0.3-1.1,1.3-2.6,2.9c-1.5,1.6-3.2,3.4-5.1,5.3
			c-1.9,1.9-3.8,3.8-5.7,5.6c-1.9,1.8-3.4,3.2-4.4,4.2c-3.8,3.6-7.7,7.2-11.5,10.8c-3.8,3.6-7.7,7.2-11.5,10.8l-18.6,15.5
			c-3.6,3-7.3,6-11.1,8.8c-3.8,2.9-7.7,5.4-11.7,7.6c-2.9,1.8-6.1,3.1-9.6,4c-3.5,0.9-6.8,0.6-10.1-0.7c-4.8-2.3-7.2-6.4-7.1-12.4
			c0.2-2.6,0.7-5.2,1.4-7.9c0.7-2.6,1.4-5.2,2.3-7.6l6.7-18.8c1.1-3,2.2-6,3.4-9c1.2-3,2.2-6.1,2.9-9.3c-3.1,2.7-5.8,5.4-8.2,8.1
			c-2.4,2.7-4.9,5.8-7.6,9.3c-3,3.8-5.8,7.6-8.5,11.3c-2.7,3.8-5.3,7.6-8,11.7c-4.6,6.8-9,13.7-13.3,20.7c-4.3,6.9-9,13.6-14.2,19.9
			c-0.9,1.5-2.2,2.3-3.8,2.4c-1.6,0-3.1-0.3-4.6-0.9c-0.9-0.5-1.8-1-2.8-1.6c-0.9-0.6-1.3-1.6-1.2-3.1c1.2-9,3.1-17.7,5.8-26.2
			c2.7-8.5,5.5-17,8.4-25.6l18.3-49.7c6.3-16.2,13-31.8,20.2-46.8c7.1-15,15.2-30.3,24.1-46c2.2-3.4,4.7-6.6,7.6-9.5
			c2.9-2.9,6.6-4.7,11.1-5.2c2.5-0.3,4.7,0.3,6.6,1.8c1.9,1.5,2.2,3,1,4.6l-2.7,2.5c-1.1,0.7-2,0.8-3,0.4l-0.4,0.1l-1.2,1l-1.9,1.9
			c-1.2,1.9-2.3,3.6-3.4,5.1c-1.1,1.6-2.3,3.5-3.6,5.8c-1.3,2.3-2.8,5-4.6,8c-1.8,3.1-4.1,7.1-6.9,12c-4.2,7.4-7.9,14.5-11.1,21.5
			c-5.7,11.8-10.8,23.7-15.3,35.7c-4.5,12-9,24.1-13.5,36.3c-2.3,6.8-4.7,13.6-7.3,20.4c-2.6,6.7-5,13.5-7.3,20.4
			c3.4-4.7,6.7-9.4,9.8-14.3c3.1-4.8,6.4-9.6,9.8-14.2c5.1-6.9,10.7-13.6,16.8-20c2.5-2.6,5.2-4.9,8.1-7c2.9-2.1,6-3.6,9.3-4.6
			c1.3-0.7,3.2-1,5.5-0.7c2.3,0.3,3.9,1.4,4.7,3.3c0.8,1.6,1.1,3.4,1.1,5.4c0,2-0.2,3.9-0.6,5.6c-0.3,2.3-0.8,4.7-1.5,7
			c-0.7,2.4-1.5,4.7-2.3,7.1c-2.4,6-4.7,12-7,18c-2.3,6-4,12-5.3,18.2l-1,6.1c1.5,0.4,4.3-0.8,8.5-3.6c4.2-2.8,8.7-6.1,13.6-9.8
			c4.8-3.7,9.4-7.5,13.8-11.3c4.4-3.8,7.7-6.7,10.1-8.7c7.2-6.6,13.1-12,17.7-16.3c4.6-4.3,8.5-7.7,11.6-10.4
			c3.1-2.7,5.5-4.8,7.1-6.4C1401.2,358,1402.8,356.4,1404.3,354.7z"/>
		
			<linearGradient id="SVGID_00000000198779667882338460000002799256819270274487_" gradientUnits="userSpaceOnUse" x1="143.7114" y1="669.7217" x2="1977.2715" y2="669.7217">
			<stop  offset="0" style="stop-color:#FFFFFF;stop-opacity:0"/>
			<stop  offset="1" style="stop-color:#000000;stop-opacity:0"/>
		</linearGradient>
		<path style="fill:url(#SVGID_00000000198779667882338460000002799256819270274487_);" d="M1418,355.2l-1.5,1.5l-4.1,4.8
			c-3.2,4.1-6.2,8.2-9,12.4c-2.8,4.2-5.3,8.6-7.6,13.1c-2.6,4.3-4.8,9.1-6.6,14.3c-1.8,5.2-3.1,10.3-3.9,15.2
			c-0.3,2.3-0.4,3.9-0.3,4.7c0.4,1.1,1.4,1.3,3.1,0.5l4.9-1.9c3.3-1.3,6.8-3,10.7-5.4c3.8-2.3,9.4-5.6,16.5-9.9
			c1.6-1,3.3-2.1,5.2-3.2c1.9-1.1,4.3-2.8,7.3-5.2c3-2.4,6.8-5.3,11.3-8.9c4.6-3.6,10.3-8.3,17.3-14.3c4.4-3.7,9.1-7.5,14-11.6
			c4.9-4,10.1-8.2,15.6-12.6c0.8-0.4,1.9-0.4,3.2-0.2c1.3,0.3,2.6,0.6,3.8,1c1.2,0.4,2.1,1.1,2.6,2c0.5,0.9,0.5,2-0.2,3.2
			c-1.2,1.6-2.8,3.2-4.5,4.8c-1.8,1.7-3.7,3.3-5.8,5c-9,7.7-18.1,15.3-27.2,22.8c-9.1,7.5-18.7,14.8-29,21.7
			c-2.4,1.7-5.1,3.6-8.3,5.5c-3.2,2-6.1,3.7-8.8,5.1c-2.4,1.4-5.5,3.2-9.4,5.2c-3.9,2-8,3.8-12.2,5.1c-4.2,1.4-8.3,1.9-12.2,1.5
			c-3.9-0.4-7.1-2.3-9.5-5.7c-1.8-2.9-2.3-6.1-1.6-9.6c0.3-2.3,0.8-4.8,1.4-7.4c0.7-2.7,1.6-5.2,2.7-7.6c3.5-8.7,7.7-17.3,12.7-25.7
			c5-8.4,12.3-18.1,22.1-29c2.1-1.7,4.2-1.8,6.4-0.4c2.2,1.4,3.3,3.5,3.3,6L1418,355.2z M1420.5,333.1c-1.2-0.1-2.3-0.6-3.4-1.5
			c-1.1-0.9-1.7-2-1.9-3.4c0.4-1.5,1.4-2.9,2.9-4.2c1.5-1.3,4.9-4.4,10-9.4c1.3-1.3,2.9-1.8,5-1.5c2,0.3,3.5,0.9,4.5,1.6
			c0.6,0.5,1.4,1.3,2.4,2.3c1,1,1,2.2,0,3.4l-3.8,3.9l-3.4,3.4c-1.8,1.7-3.6,3-5.5,4.1C1425.3,332.9,1423.1,333.3,1420.5,333.1z"/>
		
			<linearGradient id="SVGID_00000039826921942948786680000011433618622643644341_" gradientUnits="userSpaceOnUse" x1="143.7114" y1="669.7217" x2="1977.2715" y2="669.7217">
			<stop  offset="0" style="stop-color:#FFFFFF;stop-opacity:0"/>
			<stop  offset="1" style="stop-color:#000000;stop-opacity:0"/>
		</linearGradient>
		<path style="fill:url(#SVGID_00000039826921942948786680000011433618622643644341_);" d="M1620.7,329.9c0.9,0.5,1.8,1.3,2.7,2.5
			c0.9,1.2,0.8,2.3-0.2,3.2c-4,4.5-8.5,8.9-13.6,13.2c-5,4.3-9.7,8.6-14,12.8c-4.6,4.3-9.2,8.3-13.9,12.2
			c-4.7,3.9-9.6,7.8-14.8,11.9c-7,5.7-14.1,11.1-21.3,16.3c-7.2,5.2-14.7,9.9-22.4,14.3c-5.3,2.9-11.2,5.5-17.5,7.7
			c-6.3,2.2-12.4,2.1-18.4-0.3c-5.7-2.2-9-5.9-9.9-11.2c-0.7-3.1-0.7-6.3-0.1-9.6c0.6-3.3,1.3-6.6,2-9.9c2-9.7,4.7-19.1,8.1-28.4
			c3.4-9.3,7-18.5,10.7-27.8c2.3-6.6,4.8-13,7.5-19.3c2.6-6.3,5.4-12.6,8.4-19l-8,1c-12.4,1.5-24.5,3-36.5,4.5
			c-11.9,1.5-23.9,3.1-36,4.8c-11.8,1.4-23.4,2.9-34.7,4.5c-11.4,1.5-22.9,3-34.7,4.5c-8.7,1.1-17.3,2.2-25.9,3.4
			c-8.5,1.2-17.3,2.3-26.3,3.4l-13.1,1.6l-1.7,0.2c-2.5,0.6-5.2,0.9-8.2,0.8c-3-0.1-5.1-1.6-6.3-4.6c-0.3-0.5-0.3-1.1,0-1.7
			c0.4-0.6,0.8-1.2,1.3-1.9c0.5-0.6,1.7-1.1,3.7-1.3l-0.8,0.1l0.4-0.1l1.3-0.2c6.7-1.1,13.4-2.1,20.2-2.9c6.7-0.8,13.6-1.7,20.7-2.5
			c1.7-0.2,3.8-0.5,6.3-0.8s7.2-0.9,13.9-1.7c6.7-0.8,16.4-2.1,29.1-3.8c12.6-1.7,29.9-4,51.8-7l72.1-8.8c2.8-0.3,5.5-0.7,8.2-1
			c2.7-0.3,5.4-0.8,8.2-1.4c0.4-1.5,0.9-2.9,1.6-4.3c0.7-1.4,1.4-2.8,2-4.3c0.4-1.2,0.9-2.3,1.3-3.4c0.4-1.1,0.9-2.2,1.3-3.4l2-4.9
			c1.1-2.4,2.2-4.9,3.4-7.5c1.1-2.6,2.2-5,3.4-7.5l8.3-16.4l5-8.3l2.5-3.7c0.7-1.5,2.3-2.6,4.7-3.1c2.8-0.3,5,0.2,6.6,1.8
			c1.3,1,1.6,2.5,1,4.6c-3.4,5.3-6.3,10.6-8.7,16c-2.5,5.4-5,10.7-7.5,15.9c-0.4,1.5-1,2.8-1.9,4.1c-0.9,1.2-1.5,2.5-1.9,3.7
			l-1.9,5.4c-1.7,4.8-3.5,9-5.3,12.6c0,0.3-0.1,0.6-0.3,0.9c4.5-0.6,9-1,13.5-1.4c4.5-0.4,9.2-0.9,13.9-1.5c5.6-0.7,11.2-1.4,16.7-2
			s11.1-1.1,16.8-1.2c1.4,0.1,2.9,0.4,4.4,1c1.5,0.5,2.6,1.5,3.3,2.8c1.5,2.7,0.7,4.5-2.3,5.4c-3.6,1-7,2.3-10.2,3.8
			c-3.2,1.5-6.8,2.8-10.6,3.9c-1.7,0.5-3.3,0.6-5.1,0.4c-1.7-0.2-3.3-1-4.6-2.2c-0.9-0.7-1.5-1.7-1.6-2.8l-2.5,0.3l-36.2,4.4
			c-3.1,7.5-6.1,15-9.2,22.5c-3.1,7.5-6.1,15-9.2,22.5c-3.4,9.3-6.8,18.5-10.1,27.8c-3.3,9.2-5.9,18.7-7.9,28.3
			c-0.3,2-0.6,4.1-1,6.1c-0.3,2-0.5,4.2-0.5,6.5l0.1,0.4c0.5,3.9,2.1,5.4,4.8,4.5c2.7-0.9,5.2-1.8,7.4-2.6c3-1.2,5.9-2.6,8.7-4.1
			c2.8-1.5,5.8-3.3,9-5.4c16.1-10.2,31.7-21.6,46.7-34.2c15-12.5,29.2-25.6,42.7-39.2c1.3-1.3,2.9-1.8,5-1.5
			C1617.9,328.7,1619.5,329.2,1620.7,329.9z"/>
		
			<linearGradient id="SVGID_00000070824244156577619010000006386855347007017348_" gradientUnits="userSpaceOnUse" x1="143.7114" y1="669.7217" x2="1977.2715" y2="669.7217">
			<stop  offset="0" style="stop-color:#FFFFFF;stop-opacity:0"/>
			<stop  offset="1" style="stop-color:#000000;stop-opacity:0"/>
		</linearGradient>
		<path style="fill:url(#SVGID_00000070824244156577619010000006386855347007017348_);" d="M1613.1,368.9c-2.1,1.4-4.6,2.4-7.5,3.1
			c-2.9,0.6-5.7,0.6-8.4-0.3l-0.7,0.9c-1.1,3-1.8,6.1-2.1,9.2c-0.3,3.2,0.8,6.2,3.5,9c2.1,0.9,4.6,1,7.5,0.4
			c2.9-0.6,5.8-1.6,8.6-2.8c2.8-1.2,5.6-2.5,8.3-4c2.7-1.5,5.1-2.8,7.2-3.9c9.9-5.5,19.4-11.9,28.5-19.1
			c9.1-7.2,18.9-15.8,29.4-25.6c2-2,4.3-3.9,6.8-6c2.5-2,4.7-4,6.8-6c1.1-0.7,2.2-1.6,3.5-2.6c1.3-1,2.6-1.9,4-2.6
			c1.6-0.8,3.6-0.8,6-0.1c2.4,0.7,3.4,2.2,3.1,4.5l-0.7,1.4l-1.1,1.4l-5,4.9l-1.5,1.5l-12.4,10.9c-5.7,5-11.7,10.2-18.2,15.7
			c-6.5,5.5-13.5,10.9-21.1,16.1c-5.2,3.8-10.9,7.5-17,11.3c-6.1,3.7-12,6.7-17.7,8.8c-6.5,2.5-13.2,4-20,4.6c-4-0.1-7.9-1-11.7-2.8
			c-3.8-1.8-6.6-4.6-8.5-8.4c-1.3-3.8-1.5-7.9-0.4-12.1c1-4.3,2.4-8.1,4-11.4c4.1-8.2,9.2-16,15.1-23.2c2.5-3.1,5.3-6.3,8.5-9.6
			c3.2-3.2,6.6-6.2,10.2-9c3.1-2.4,7.1-4.5,11.8-6.4c4.8-1.9,9.3-1.6,13.6,0.7c3.7,2.4,5.3,5.5,4.8,9.3c-0.5,3.8-1.7,7.3-3.6,10.7
			c-3.3,5.8-8,11.7-14.1,17.6c-2.8,2.6-5.9,5.1-9.1,7.5C1620,365,1616.6,367.1,1613.1,368.9z M1600.5,364.1
			c-0.5,0.6,0.7,0.3,3.5-1.1c2.8-1.3,6.2-3.5,10.1-6.4c3.9-2.9,8-6.6,12.3-11.1c4.3-4.5,7.8-9.7,10.5-15.4c0.2-0.3,0.5-0.9,0.6-1.8
			c0.2-0.9,0.1-2.3-0.1-4.3c-3.3,1.3-7,3.7-11.1,7.3c-4.4,4-8.5,8.5-12.5,13.5c-3.9,5-7.9,10.4-11.7,16L1600.5,364.1z"/>
		
			<linearGradient id="SVGID_00000141441189391674838240000014500232576999676551_" gradientUnits="userSpaceOnUse" x1="143.7114" y1="669.7217" x2="1977.2715" y2="669.7217">
			<stop  offset="0" style="stop-color:#FFFFFF;stop-opacity:0"/>
			<stop  offset="1" style="stop-color:#000000;stop-opacity:0"/>
		</linearGradient>
		<path style="fill:url(#SVGID_00000141441189391674838240000014500232576999676551_);" d="M718.9,813.9c7.9,3.6,14.4,8.7,19.6,15.3
			c5.2,6.6,8.4,14.2,9.4,22.6c1.1,9,0.6,17.9-1.4,26.7c-2.1,8.8-5,17.2-8.9,25.1c-4,9.1-8.8,17.6-14.4,25.7
			c-5.6,8.1-11.4,16.1-17.6,24c-6.2,7.6-12.5,15.1-18.9,22.4c-6.4,7.3-13.1,14.6-20.2,21.7c-15.5,15.6-31.9,30.1-49.2,43.5
			c-17.3,13.4-35,26.5-53.2,39.2c-6.1,4.2-12,8.2-18,12.3c-5.9,4-11.9,7.9-18,11.8c-8.5,5-17,10-25.3,14.9
			c-8.4,4.9-16.8,9.7-25.4,14.4c-1.3,0.7-3,0.9-4.9,0.4c-1.9-0.5-3.5-1.2-4.8-2.2c-1.4-1.8-1.6-3.4-0.6-4.6l-0.2-1.7
			c0.3-2.3,0.8-4.6,1.5-6.8c0.7-2.2,1.5-4.5,2.4-6.9l5.2-13.5c5.1-12.3,10.5-24.3,16.3-36c5.8-11.7,11.9-23.3,18.2-35
			c6-11.3,11.9-22.5,17.7-33.6c5.8-11.1,11.7-22.2,17.8-33.2c4.4-8.2,8.9-16.5,13.4-24.8c4.5-8.3,9.2-16.5,13.9-24.8l16.1-28.9
			c1.7-2.8,3.2-5.5,4.8-8.3c1.5-2.8,3.2-5.5,5.2-8.3l4.4-9.1c0.7-1.5,1.1-3.1,1.4-4.7c0.2-1.6,1.2-2.6,2.8-3.1c3.9-1,7-0.8,9.5,0.8
			c2.5,1.6,2.7,4.5,0.6,8.7c-0.5,0.9-0.9,1.8-1.2,2.5c-0.3,0.8-0.8,1.7-1.4,2.9c-0.6,1.2-1.4,2.9-2.6,5c-1.2,2.1-2.8,5-4.9,8.7
			c-3.1,5.2-6,10.5-8.8,15.8c-2.8,5.3-5.5,10.6-8.3,15.8c-2.6,4.3-5,8.5-7.2,12.4c-2.2,4-4.5,8.1-6.8,12.4
			c-5.2,8.9-10.2,17.9-15.1,27.1c-4.9,9.2-9.8,18.2-14.7,27c-6,11.6-12.1,23.2-18.2,35c-6.1,11.7-12.2,23.4-18.2,35
			c-3,6.1-5.9,12-8.7,17.8c-2.9,5.8-5.6,11.7-8.3,17.7c-1.1,3-2.2,5.9-3.4,8.8c-1.2,2.9-2.4,5.8-3.4,8.8c-0.8,2.4-1.5,4.3-1.9,5.8
			c6.1-3.9,12.3-7.7,18.5-11.5c6.2-3.8,12.4-7.6,18.5-11.5c6.9-4.3,13.6-8.7,20-13.1c6.4-4.5,12.8-9,19.1-13.5
			c10-6.9,19.7-14,29.3-21.1c9.5-7.2,18.8-14.6,27.9-22.2c16.1-13.1,30.7-26.6,43.8-40.5l1.2-1l1.1-1.4l2.3-2.4l4.5-5.3
			c1.8-1.6,3.4-3.4,4.9-5.3c1.5-1.9,3.1-3.8,4.9-5.7c3.2-3.8,6.4-7.6,9.5-11.4c3.1-3.8,6.1-7.7,9-11.8c12.1-15.5,21.6-32,28.6-49.7
			c7.2-18,8.8-32.4,4.8-43.2c-4-10.8-11.4-18.7-22-23.8c-10.6-5.1-23.4-8-38.5-8.8s-29.9-0.2-44.5,1.6c-46.3,6-91.3,18.3-134.9,37.1
			c-22,9-43.5,20-64.4,33.1c-5.3,3.2-10.4,6.5-15.3,9.8c-4.9,3.3-9.8,6.8-14.7,10.6l-14,11.1c-1.2,1.6-2.6,3-4.2,4.2
			c-1.6,1.2-3,2.6-4.2,4.2l-0.6,2.2c-0.5,0.6-1.2,1.2-2.2,1.5c-0.9,0.4-1.7,0.6-2.3,0.7c-2.2,0.8-4.4,0.5-6.5-0.9
			c-0.6-0.5-1.3-1.1-1.9-1.9c-0.7-0.8-0.9-1.5-0.7-2.1c1.6-3.6,4-7,7.3-10.3c1.5-1.6,3.1-3,4.8-4.2c1.7-1.2,3.3-2.5,4.9-3.8
			c3.4-2.7,6.8-5.3,10.2-7.9c3.4-2.6,6.9-5.2,10.6-7.9c7.1-4.9,14.5-9.6,22.2-14.3c7.7-4.6,15.4-9.2,23.2-13.5
			c10.7-5.6,21.6-10.8,32.7-15.8c11.1-4.9,22.4-9.4,33.9-13.3c22.1-8.1,44.7-14.7,67.7-19.9c11.7-2.6,23.4-4.7,35.4-6.5
			c11.9-1.7,23.8-2.9,35.7-3.5c11.3-0.5,22.9-0.2,34.8,0.9C697.1,805.5,708.3,808.7,718.9,813.9z"/>
		
			<linearGradient id="SVGID_00000165213989603757967950000000998388037332212397_" gradientUnits="userSpaceOnUse" x1="143.7114" y1="669.7217" x2="1977.2715" y2="669.7217">
			<stop  offset="0" style="stop-color:#FFFFFF;stop-opacity:0"/>
			<stop  offset="1" style="stop-color:#000000;stop-opacity:0"/>
		</linearGradient>
		<path style="fill:url(#SVGID_00000165213989603757967950000000998388037332212397_);" d="M745.1,988.7c-2.1,1.4-4.6,2.4-7.5,3.1
			c-2.9,0.6-5.7,0.6-8.4-0.3l-0.7,0.9c-1.1,3-1.8,6.1-2.1,9.2c-0.3,3.2,0.8,6.2,3.5,9c2.1,0.9,4.6,1,7.5,0.4
			c2.9-0.6,5.8-1.6,8.6-2.8c2.8-1.2,5.6-2.5,8.3-4c2.7-1.5,5.1-2.8,7.2-3.9c9.9-5.5,19.4-11.9,28.5-19.1
			c9.1-7.2,18.9-15.8,29.4-25.6c2-2,4.3-3.9,6.8-6c2.5-2,4.7-4,6.8-6c1.1-0.7,2.2-1.6,3.5-2.6c1.3-1,2.6-1.9,4-2.6
			c1.6-0.8,3.6-0.8,6-0.1c2.4,0.7,3.4,2.2,3.1,4.5l-0.7,1.4l-1.1,1.4l-5,4.9l-1.5,1.5l-12.4,10.9c-5.7,5-11.7,10.2-18.2,15.7
			c-6.5,5.5-13.5,10.9-21.1,16.1c-5.2,3.8-10.9,7.5-17,11.3c-6.1,3.7-12,6.7-17.7,8.8c-6.5,2.5-13.2,4-20,4.6c-4-0.1-7.9-1-11.7-2.8
			c-3.8-1.8-6.6-4.6-8.5-8.4c-1.3-3.8-1.5-7.9-0.4-12.1c1-4.3,2.4-8.1,4-11.4c4.1-8.2,9.2-16,15.1-23.2c2.5-3.1,5.3-6.3,8.5-9.6
			c3.2-3.2,6.6-6.2,10.2-9c3.1-2.4,7.1-4.5,11.8-6.4c4.8-1.9,9.3-1.6,13.6,0.7c3.7,2.4,5.3,5.5,4.8,9.3c-0.5,3.8-1.7,7.3-3.6,10.7
			c-3.3,5.8-8,11.7-14.1,17.6c-2.8,2.6-5.9,5.1-9.1,7.5C751.9,984.7,748.5,986.9,745.1,988.7z M732.5,983.8
			c-0.5,0.6,0.7,0.3,3.5-1.1c2.8-1.3,6.2-3.5,10.1-6.4c3.9-2.9,8-6.6,12.3-11.1c4.3-4.5,7.8-9.7,10.5-15.4c0.2-0.3,0.5-0.9,0.6-1.8
			c0.2-0.9,0.1-2.3-0.1-4.3c-3.3,1.3-7,3.7-11.1,7.3c-4.4,4-8.5,8.5-12.5,13.5c-3.9,5-7.9,10.4-11.7,16L732.5,983.8z"/>
		
			<linearGradient id="SVGID_00000096758802985797335800000018287938616183922361_" gradientUnits="userSpaceOnUse" x1="143.7114" y1="669.7217" x2="1977.2715" y2="669.7217">
			<stop  offset="0" style="stop-color:#FFFFFF;stop-opacity:0"/>
			<stop  offset="1" style="stop-color:#000000;stop-opacity:0"/>
		</linearGradient>
		<path style="fill:url(#SVGID_00000096758802985797335800000018287938616183922361_);" d="M955.7,920.1c1.9-1.1,4.2-0.9,6.9,0.4
			s3.2,3,1.5,5c-0.7,1.2-1.6,2.3-2.8,3.3c-1.2,1-2.4,1.9-3.7,2.6c-9.3,6-16.5,10.2-21.8,12.7c-5.3,2.5-10.2,4.6-14.8,6.3
			c-2.7,0.9-5.4,1.7-8.1,2.3c-2.6,0.6-5.4,1.1-8.2,1.4c-4.8,0.6-8.9,0.5-12.4-0.2c-1.2,1.6-2.5,3.1-3.7,4.5
			c-1.3,1.4-2.5,2.9-3.7,4.5c-3.5,4.1-7,8.3-10.7,12.4c-3.6,4.2-7.4,8-11.2,11.6c-4.3,4.5-8.8,9-13.5,13.4c-4.7,4.4-9.4,8.9-14,13.5
			c-1.1,0.7-2.4,1.1-3.9,1.1c-1.6,0-2.9-0.1-4.1-0.6c-0.9-0.5-1.8-1-2.8-1.6c-0.9-0.6-1.5-1.5-1.6-2.6c-0.2-6.5,0.2-12.9,1.3-19.2
			c1.1-6.3,2.5-12.4,4.4-18.3c1-3.3,1.9-6.3,2.7-9.1c0.8-2.8,1.6-5.8,2.3-9.1l2.7-9.7c0.4-1.5,0.7-2.9,1-4.4
			c0.2-1.5,0.7-2.9,1.4-4.4c0.5-0.9,1.4-1.5,2.8-1.8c1.4-0.3,2.8-0.3,4.3-0.1c1.5,0.2,2.7,0.8,3.6,1.7c1,0.9,1.4,1.9,1.2,3.1
			c-0.2,3.2-0.5,6.2-1,9.1c-0.4,1.5-0.8,3-1.2,4.4c-0.4,1.5-0.8,3-1.2,4.4c-0.7,3.2-1.5,6.2-2.3,9.1c-0.8,2.8-1.7,5.7-2.8,8.7
			c-2,7.4-3.5,14.1-4.8,20.3c6.4-5.6,12.3-11.2,17.6-16.7c3.6-3.6,6.9-7.3,10-11.1c3.1-3.8,6.3-7.6,9.5-11.4c1.2-1.6,2.4-3,3.5-4.3
			c1.1-1.3,2.3-2.7,3.5-4.3c-1.9-3.5-2.7-6.8-2.5-10c0.1-3.4,1-6.7,2.4-9.9c1.5-3.2,3.2-6.2,5.1-9c2-2.5,4.2-4.9,6.8-7
			c2.6-2.2,5.7-3.8,9.3-4.8c1.4-0.2,3.2,0,5.4,0.6c2.2,0.6,3.4,1.9,3.7,3.8c0.1,0.8,0.2,1.8,0.3,2.7c0.1,1,0.1,1.9-0.1,2.8
			c-0.3,4.3-1.4,8.6-3.3,12.8c-1.9,4.2-4.1,8.1-6.5,11.5c-0.5,0.9-1.1,1.8-1.8,2.6c-0.8,0.8-1.4,1.7-1.8,2.6
			c1.4-0.2,2.6-0.3,3.6-0.4c1-0.1,2.2-0.4,3.5-0.9c5-1.2,9.9-2.7,14.8-4.6c4.9-1.9,9.7-4.3,14.5-7.1
			C941.7,929.3,948.6,925,955.7,920.1z"/>
		
			<linearGradient id="SVGID_00000155147333288659043330000009098215263469650354_" gradientUnits="userSpaceOnUse" x1="143.7114" y1="669.7217" x2="1977.2715" y2="669.7217">
			<stop  offset="0" style="stop-color:#FFFFFF;stop-opacity:0"/>
			<stop  offset="1" style="stop-color:#000000;stop-opacity:0"/>
		</linearGradient>
		<path style="fill:url(#SVGID_00000155147333288659043330000009098215263469650354_);" d="M952,963.4c-2.1,1.4-4.6,2.4-7.5,3.1
			c-2.9,0.6-5.7,0.6-8.4-0.3l-0.7,0.9c-1.1,3-1.8,6.1-2.1,9.2c-0.3,3.2,0.8,6.2,3.5,9c2.1,0.9,4.6,1,7.5,0.4
			c2.9-0.6,5.8-1.6,8.6-2.8c2.8-1.2,5.6-2.5,8.3-4c2.7-1.5,5.1-2.8,7.2-3.9c9.9-5.5,19.4-11.9,28.5-19.1
			c9.1-7.2,18.9-15.8,29.4-25.6c2-2,4.3-3.9,6.8-6c2.5-2,4.7-4,6.8-6c1.1-0.7,2.2-1.6,3.5-2.6c1.3-1,2.6-1.9,4-2.6
			c1.6-0.8,3.6-0.8,6-0.1c2.4,0.7,3.4,2.2,3.1,4.5l-0.7,1.4l-1.1,1.4l-5,4.9l-1.5,1.5l-12.4,10.9c-5.7,5-11.7,10.2-18.2,15.7
			c-6.5,5.5-13.5,10.9-21.1,16.1c-5.2,3.8-10.9,7.5-17,11.3c-6.1,3.7-12,6.7-17.7,8.8c-6.5,2.5-13.2,4-20,4.6c-4-0.1-7.9-1-11.7-2.8
			c-3.8-1.8-6.6-4.6-8.5-8.4c-1.3-3.8-1.5-7.9-0.4-12.1c1-4.3,2.4-8.1,4-11.4c4.1-8.2,9.2-16,15.1-23.2c2.5-3.1,5.3-6.3,8.5-9.6
			c3.2-3.2,6.6-6.2,10.2-9c3.1-2.4,7.1-4.5,11.8-6.4c4.8-1.9,9.3-1.6,13.6,0.7c3.7,2.4,5.3,5.5,4.8,9.3c-0.5,3.8-1.7,7.3-3.6,10.7
			c-3.3,5.8-8,11.7-14.1,17.6c-2.8,2.6-5.9,5.1-9.1,7.5C958.9,959.4,955.5,961.5,952,963.4z M939.4,958.5c-0.5,0.6,0.7,0.3,3.5-1.1
			c2.8-1.3,6.2-3.5,10.1-6.4c3.9-2.9,8-6.6,12.3-11.1c4.3-4.5,7.8-9.7,10.5-15.4c0.2-0.3,0.5-0.9,0.6-1.8c0.2-0.9,0.1-2.3-0.1-4.3
			c-3.3,1.3-7,3.7-11.1,7.3c-4.4,4-8.5,8.5-12.5,13.5c-3.9,5-7.9,10.4-11.7,16L939.4,958.5z"/>
		
			<linearGradient id="SVGID_00000180327553107121518370000008649093374502327732_" gradientUnits="userSpaceOnUse" x1="143.7114" y1="669.7217" x2="1977.2715" y2="669.7217">
			<stop  offset="0" style="stop-color:#FFFFFF;stop-opacity:0"/>
			<stop  offset="1" style="stop-color:#000000;stop-opacity:0"/>
		</linearGradient>
		<path style="fill:url(#SVGID_00000180327553107121518370000008649093374502327732_);" d="M1057.8,870.4
			c7.4-13.7,15.6-27.7,24.4-41.9c8.8-14.2,19.4-27,31.6-38.5c4.5-4.8,8.6-7.3,12.1-7.5c3.5-0.1,6.8,1,9.6,3.5c1.4,2.1,1.8,4.8,1.2,8
			c-0.6,3.2-1.5,6.6-2.8,10.2s-2.8,7.1-4.7,10.4c-1.9,3.4-3.4,6.3-4.5,8.7l-2.1,4.1c-4.9,8.9-10.2,17.9-15.7,27
			c-5.6,9.1-11.5,17.7-17.6,25.9c-3.7,5-8.2,10.7-13.7,17.1c-5.5,6.4-10.4,12-14.6,16.8l-3.4,3.8c-2,2.2-4.1,4.6-6.4,7
			c-2.3,2.4-4.4,4.5-6.5,6.1l-0.1-0.4l-4,12.5c-1.7,5.1-3.1,10.4-4.4,16.2c-1.3,5.7-1.8,11.8-1.6,18.4l0.2,1.7c0.1,1.1,1,1.4,2.7,1
			c1.7-0.5,3.5-1.2,5.5-2.2c2-1,4-2,5.8-3.3c1.8-1.2,3.2-2,4-2.4c7.1-4.9,13-9.3,17.6-13.3c4.6-4,9.5-8.3,14.7-12.9
			c1.5-1.3,3.1-2.7,4.6-4.2c1.5-1.5,3.2-3,5-4.7c3.6-3.3,7-6.7,10.3-10.2c3.3-3.5,6.5-7.1,9.8-10.6c2.3-2.6,4.6-5.1,7-7.5
			c2.4-2.4,4.7-4.9,7-7.5c1.5-1.3,3.9-1.3,7.1,0.2c3.2,1.5,4.2,3.3,3,5.4c-2,2.2-4.1,4.6-6.2,7c-2.1,2.4-4.2,4.6-6.3,6.5l-6.9,6.8
			c-1.2,1.6-2.6,3-4.2,4.4c-1.5,1.3-2.9,2.8-4.2,4.4l-5.8,5.4c-4.9,4.6-9.8,9.2-14.8,13.8c-5,4.6-10.2,9.2-15.6,13.9l-3.9,3
			c-2.4,1.7-4.7,3.4-7.1,5.1c-2.4,1.7-5.4,3.7-9.1,5.8c-2.9,1.8-6.3,3.4-10.1,4.9c-3.8,1.5-7.4,2.3-10.6,2.4
			c-3.3,0.1-6.1-0.8-8.5-2.8c-2.4-2-3.6-5.5-3.7-10.7c0-2,0-3.4-0.1-4.3c-0.1-0.8-0.1-1.8,0.1-3c0.3-4.9,1-9.9,2.2-15
			c1.2-5.1,2.5-10.1,4-14.8c3.7-11.9,8.1-23.7,13.4-35.7C1046.9,892.3,1052.3,881,1057.8,870.4z M1081.4,870.5
			c7.7-11.5,15.5-23.4,23.2-35.8c7.8-12.4,14.1-25.3,19-38.7l-4.2,4.4c-6.1,6.5-11.8,13.5-17.1,21.1c-5.3,7.6-10.3,15.2-14.8,22.6
			c-5.7,9.3-11.1,18.6-16.2,28.1c-5.1,9.5-9.9,19-14.4,28.7l0.8-0.5c4-4.5,8.1-9.3,12.2-14.3C1073.9,881,1077.8,875.8,1081.4,870.5z
			"/>
		
			<linearGradient id="SVGID_00000108296281613332669300000001515435574854057860_" gradientUnits="userSpaceOnUse" x1="143.7114" y1="669.7217" x2="1977.2715" y2="669.7217">
			<stop  offset="0" style="stop-color:#FFFFFF;stop-opacity:0"/>
			<stop  offset="1" style="stop-color:#000000;stop-opacity:0"/>
		</linearGradient>
		<path style="fill:url(#SVGID_00000108296281613332669300000001515435574854057860_);" d="M1224.7,887.6c0.8-0.7,1.9-1,3.5-1.1
			c1.6,0,3,0.3,4.4,1c1.4,0.7,2.2,1.5,2.7,2.5c0.4,1,0.1,2.1-0.9,3.3c-3.6,3.6-7.4,6.8-11.5,9.5c-4.1,2.8-8.4,5.5-12.9,8
			c-4.5,2.6-9.1,4.9-13.7,7c-4.6,2.1-9.3,4.1-14.3,5.8c-1.9,0.5-4.1,1.1-6.6,1.9c-2.5,0.7-5,1.4-7.5,2c-1,1.5-1.8,3.2-2.6,4.8
			c-0.8,1.7-1.8,3.3-3,4.9c-3.5,6.1-7.2,11.9-11.2,17.2c-2.4,3.4-5,6.7-7.8,9.7c-2.8,3.1-6,5.5-9.8,7.4c-3.5,1.9-7.2,3.3-11,4.3
			c-3.9,1-7.8,0.7-11.7-1.1c-3.9-1.8-6.6-4.6-7.9-8.4c-0.8-1.6-1.2-3.3-1.3-5.2c-0.1-1.8,0.1-3.6,0.4-5.4c0.7-5.8,2.1-11.3,4.2-16.6
			c2.1-5.2,4.4-10.3,6.9-15.2c3.1-5.2,6.5-10.1,10.2-14.5c3.7-4.4,7.9-8.5,12.6-12.2c1.3-0.7,2.8-1,4.4-1c1.6,0.1,3,0.5,4.2,1.2
			c1.9,1.2,2.6,2.7,2.3,4.4c-0.4,1.8-1.5,2.8-3.5,3c-6.1,6.5-11.7,14-16.9,22.6c-2.6,4.3-4.8,8.8-6.7,13.4c-1.8,4.7-3.2,9.4-4,14.4
			c-0.1,4,0.2,7.1,0.9,9.3c0.7,2.2,3.3,1.9,7.8-1c3.2-2.1,5.9-4.4,8.1-7c2.3-2.6,4.6-5.4,7.1-8.6c1.9-3.1,3.9-6.1,5.9-9.1
			c2.1-3,4-6.1,5.9-9.5c0.5-0.9,0.9-1.8,1.4-2.5c0.5-0.8,1-1.5,1.5-2.1l-1.4-1.1c-2.6-2.3-4.1-5.6-4.7-10.1
			c-0.2-1.4-0.3-2.8-0.3-4.2c0-1.4,0.1-2.9,0.5-4.3c0.9-4.4,3-7.9,6.4-10.6c2.6-1.7,5.5-2.4,8.5-2.1c3,0.3,5.6,1.7,7.5,4
			c2.6,2.8,3.9,5.9,3.9,9.1c0,3.3-0.6,6.6-1.6,9.8l0.1,0.4l0.8-0.1c4.9-1.7,9.7-3.7,14.5-5.8c4.7-2.1,9.4-4.5,13.9-7.1l11.9-7.5
			c1.8-1.4,3.6-2.6,5.3-3.6C1221.5,890.5,1223.2,889.2,1224.7,887.6z"/>
		
			<linearGradient id="SVGID_00000148640513657647874990000001209127252704036761_" gradientUnits="userSpaceOnUse" x1="143.7114" y1="669.7217" x2="1977.2715" y2="669.7217">
			<stop  offset="0" style="stop-color:#FFFFFF;stop-opacity:0"/>
			<stop  offset="1" style="stop-color:#000000;stop-opacity:0"/>
		</linearGradient>
		<path style="fill:url(#SVGID_00000148640513657647874990000001209127252704036761_);" d="M1364.7,874.7c0.9,0.5,1.9,1.2,3,2.2
			c1.1,1,1.2,2.1,0.2,3.4c-5.7,7.3-11.6,14-17.8,20.4c-6.2,6.3-12.6,12.6-19.3,18.8c-6.7,6-13.5,11.7-20.6,17.3
			c-7,5.6-14.4,10.5-22.1,14.9c-6.6,4-13.7,7.5-21.2,10.5c-7.5,3.1-15.1,4.3-22.8,3.9c-1.4-0.1-2.8-0.4-4.2-0.8
			c-1.3-0.4-2.4-1.3-3.1-2.6c-1-1.6-0.8-3,0.7-4.4c2-2,3.8-3.9,5.3-5.8l8.6-10.5c3.5-4.4,6.7-8.8,9.7-13.2c3-4.4,6-9,8.8-13.9
			l4.5-8.3c2.5-5.4,4-9,4.5-10.8c0.5-1.8,0.5-3.3,0.1-4.7c-0.2-1.4-1.4-2-3.6-1.7c-4.8,0.6-9.5,2.7-14.2,6.4
			c-4.7,3.7-8.5,7.7-11.4,12.1c-2.8,2.9-5.2,6.1-7.4,9.5c-1.9,3.1-3.8,6.1-5.7,9c-1.9,2.9-3.7,6.1-5.3,9.4c-1,1.5-1.8,3.2-2.6,4.8
			c-0.8,1.7-1.5,3.3-2.2,4.8l-6.2,12.3l-4.8,9.6c-2.9,11.5-5.8,22.9-8.9,34.2c-3,11.3-5.9,22.6-8.5,33.8c-1.6,5.6-3,11.1-4.2,16.6
			c-1.2,5.4-2.7,10.8-4.6,16.2c-1.7,5-3.7,10-6.1,14.9c-2.4,4.9-5.3,9.4-8.8,13.5c-1.5,1.9-3.6,2.7-6.3,2.5
			c-2.7-0.2-4.8-1.4-6.2-3.5c-2.2-3.7-3.4-7.6-3.8-11.7c-0.4-4.1-0.4-8.2,0-12.2c0.9-9,3.1-18.2,6.4-27.7c1.5-4.5,3.1-8.9,5-13.2
			c1.9-4.4,3.7-8.7,5.5-12.9c2.7-5.8,5.4-11.4,8.2-17c2.7-5.6,5.6-11.3,8.6-17.1l12.1-23.7l0.5-2.6c1.6-5.9,3.1-11.9,4.7-17.9
			c1.5-6,3.1-12,4.7-17.9c1.4-5,2.6-10.2,3.6-15.6c1-5.4,1.7-10.7,1.9-15.8c-0.6-0.2-1.2-0.8-1.9-1.7c-0.7-0.9-0.8-1.7-0.3-2.3
			c0.5-0.9,1.4-1.7,2.7-2.5c1.3-0.7,2.8-1.1,4.3-1.2c1.6,0,3,0.2,4.4,0.7c1.4,0.5,2.1,1.7,2.3,3.4c0.3,4.8,0.2,9.5-0.2,13.9
			c-0.5,4.5-1.1,9.1-2,13.7c1.7-2.5,3.4-4.8,5.1-7c1.7-2.2,3.6-4.4,5.6-6.7c2.7-3.2,5.7-6.2,9-9c3.2-2.8,6.7-5.2,10.5-7.1
			c3.2-1.5,6.9-2.8,10.9-3.7c4-0.9,7.8-0.9,11.4,0.1c2.7,0.8,5.2,2,7.5,3.6c2.3,1.6,3.7,3.9,4.1,7c0.3,2.5,0.1,5.1-0.6,7.6
			c-0.7,2.5-1.6,5-2.7,7.4c-2.4,6-5.5,11.9-9.2,17.6c-3.7,5.7-7.5,11.3-11.4,16.6c-1.7,2.5-3.5,4.9-5.3,7.3
			c-1.8,2.4-3.8,4.8-5.7,7.3c4.1-1.4,8.2-3.1,12.4-5.4c4.1-2.2,8.2-4.6,12.2-7.1l6.3-4.2c7.4-4.9,14.4-10.2,21.2-15.9
			c6.7-5.7,13.4-11.8,20-18.3c3.1-2.4,6.1-5.2,8.8-8.4l4.2-4.4l3.1-2.9c3.8-3.9,7.4-8,10.9-12.5c1-1.3,2.2-1.9,3.6-1.9
			C1361.8,874.1,1363.2,874.3,1364.7,874.7z M1187.5,1024.3c-2.7,6-5.1,11.8-7.3,17.2c-1.7,4.8-3.3,9.5-4.7,14.3
			c-1.4,4.7-2.5,9.6-3.4,14.5c-0.1,1.2-0.2,2.3-0.2,3.5c0,1.1-0.1,2.4-0.2,3.9c3.2-6.7,5.6-13.5,7.3-20.6c1.7-7.1,3.4-14,5.2-20.7
			L1187.5,1024.3z"/>
		
			<linearGradient id="SVGID_00000177444461014179177870000017920308442642650800_" gradientUnits="userSpaceOnUse" x1="143.7114" y1="669.7217" x2="1977.2715" y2="669.7217">
			<stop  offset="0" style="stop-color:#FFFFFF;stop-opacity:0"/>
			<stop  offset="1" style="stop-color:#000000;stop-opacity:0"/>
		</linearGradient>
		<path style="fill:url(#SVGID_00000177444461014179177870000017920308442642650800_);" d="M1359.2,913.5c-2.1,1.4-4.6,2.4-7.5,3.1
			c-2.9,0.6-5.7,0.6-8.4-0.3l-0.7,0.9c-1.1,3-1.8,6.1-2.1,9.2c-0.3,3.2,0.8,6.2,3.5,9c2.1,0.9,4.6,1,7.5,0.4
			c2.9-0.6,5.8-1.6,8.6-2.8c2.8-1.2,5.6-2.5,8.3-4c2.7-1.5,5.1-2.8,7.2-3.9c9.9-5.5,19.4-11.9,28.5-19.1
			c9.1-7.2,18.9-15.8,29.4-25.6c2-2,4.3-3.9,6.8-6c2.5-2,4.7-4,6.8-6c1.1-0.7,2.2-1.6,3.5-2.6c1.3-1,2.6-1.9,4-2.6
			c1.6-0.8,3.6-0.8,6-0.1c2.4,0.7,3.4,2.2,3.1,4.5l-0.7,1.4l-1.1,1.4l-5,4.9l-1.5,1.5l-12.4,10.9c-5.7,5-11.7,10.2-18.2,15.7
			c-6.5,5.5-13.5,10.9-21.1,16.1c-5.2,3.8-10.9,7.5-17,11.3c-6.1,3.7-12,6.7-17.7,8.8c-6.5,2.5-13.2,4-20,4.6c-4-0.1-7.9-1-11.7-2.8
			c-3.8-1.8-6.6-4.6-8.5-8.4c-1.3-3.8-1.5-7.9-0.4-12.1c1-4.3,2.4-8.1,4-11.4c4.1-8.2,9.2-16,15.1-23.2c2.5-3.1,5.3-6.3,8.5-9.6
			c3.2-3.2,6.6-6.2,10.2-9c3.1-2.4,7.1-4.5,11.8-6.4c4.8-1.9,9.3-1.6,13.6,0.7c3.7,2.4,5.3,5.5,4.8,9.3c-0.5,3.8-1.7,7.3-3.6,10.7
			c-3.3,5.8-8,11.7-14.1,17.6c-2.8,2.6-5.9,5.1-9.1,7.5C1366,909.5,1362.7,911.6,1359.2,913.5z M1346.6,908.6
			c-0.5,0.6,0.7,0.3,3.5-1.1c2.8-1.3,6.2-3.5,10.1-6.4c3.9-2.9,8-6.6,12.3-11.1c4.3-4.5,7.8-9.7,10.5-15.4c0.2-0.3,0.5-0.9,0.6-1.8
			c0.2-0.9,0.1-2.3-0.1-4.3c-3.3,1.3-7,3.7-11.1,7.3c-4.4,4-8.5,8.5-12.5,13.5c-3.9,5-7.9,10.4-11.7,16L1346.6,908.6z"/>
		
			<linearGradient id="SVGID_00000031903116178215418880000018065620165990235056_" gradientUnits="userSpaceOnUse" x1="143.7114" y1="669.7217" x2="1977.2715" y2="669.7217">
			<stop  offset="0" style="stop-color:#FFFFFF;stop-opacity:0"/>
			<stop  offset="1" style="stop-color:#000000;stop-opacity:0"/>
		</linearGradient>
		<path style="fill:url(#SVGID_00000031903116178215418880000018065620165990235056_);" d="M1455,861.1c3.5-1.8,6.6-1.7,9.5,0.6
			c0.6,0.5,0.8,1.7,0.4,3.6c-0.3,1.9-0.9,4.1-1.5,6.6c-0.7,2.5-1.6,5-2.7,7.4c-1.1,2.4-2,4.4-2.7,5.9c5.1-4.6,10.5-9.3,16-13.9
			c5.6-4.7,11.5-9.2,17.8-13.7l2.4-1.6l3.6-2.2c2.9-1.8,5.8-3.3,8.6-4.5c2.8-1.2,5.8-2.3,8.8-3.2l0.4-0.1c0.8-0.1,1.8-0.4,2.9-0.8
			c1.4-0.2,2.7-0.3,3.8-0.5c1.1-0.1,2-0.1,2.6,0.1c2,0.3,4,1,6,2c2,1,2.9,3,2.6,5.9c-0.6,1.8-2.2,2.7-4.8,2.7
			c-2.6,0-4.7-0.1-6.5-0.5c-3.1,0.4-6.9,1.8-11.4,4.4c-4.5,2.8-8.5,5.5-11.9,7.9l-4,2.6l-7.4,5.6l-4.3,3.5l-9.4,7.1l-6.9,6.8
			l-9.3,11.4l-8.6,10l-8.4,12.1c-0.9,2.1-1.6,3.7-2.2,4.8c-0.6,1.1-1.4,2.8-2.6,5.2c-0.4,1.2-0.8,1.9-1,2.3
			c-0.5,0.9-1.6,1.3-3.5,1.3c-1.9-0.1-3.2-0.2-4.1-0.4c-1.2-0.4-2.4-1.3-3.5-2.6c-1.2-1.3-1.5-2.4-1-3.3l4.1-8.2
			c1.6-3.3,2.9-6,3.9-8c1-2,1.9-3.7,2.6-5c0.7-1.4,1.3-2.7,1.9-4.1c0.5-1.3,1.1-2.9,1.8-4.7l1.9-5.4l6.9-17.1
			c1-3.8,2.2-7.7,3.7-11.6C1451.2,866,1453,863,1455,861.1z"/>
	</g>
	<text transform="matrix(0.9926 -0.1216 0.1216 0.9926 203.9581 572.4238)"><tspan x="0" y="0" class="st19 st20 st21">Harry White</tspan><tspan x="235.5" y="509.6" class="st19 st20 st21">Developer</tspan></text>
</g>
</svg>
