<?xml version="1.0" encoding="utf-8"?>
<!-- Generator: Adobe Illustrator 26.0.2, SVG Export Plug-In . SVG Version: 6.00 Build 0)  -->
<svg version="1.1" id="Layer_1" xmlns="http://www.w3.org/2000/svg" xmlns:xlink="http://www.w3.org/1999/xlink" x="0px" y="0px"
	 viewBox="0 0 1913 1364" enable-background="new 0 0 1913 1364" xml:space="preserve">
<path fill="none" d="M370.9,319.4c-28,57.4-55.9,117.1-83.5,179c-29.2,65.7-56.3,130-81.3,192.6"/>
<path fill="none" d="M470.1,328c-25,44.6-50.4,94.1-74.9,148.3c-25,55.5-45.7,108.4-62.8,157.6"/>
<path fill="none" d="M184.4,510.6c186-28.9,267.2-42.4,270.7-44.3c0.3-0.1,2.9-1.8,4.7-0.8c1,0.6,1.5,1.8,1.7,3.2"/>
<path fill="none" d="M492.9,467.6c-3.4-0.3-8.6-0.3-14.5,1.6c-17,5.4-25,21.9-32.2,36.9c-4.4,9.2-13.6,28.4-7.8,33.3
	c4.7,4,17-3.4,18.4-4.3c14.6-8.9,16.4-21,29.4-41.2c13.4-20.8,26.7-31.3,27.1-31c0.5,0.4-16.8,15.9-20.8,40
	c-0.9,5.7-3,18.3,3.5,23.5c7.3,5.9,21.3-0.7,29-4.3c12.6-5.9,21.4-13.6,47.5-40.4c17.9-18.4,22.4-23.7,23.9-22.7
	c4.8,3.2-31.4,66.9-29.8,67.9c1,0.6,14.4-24.9,40-53c16.9-18.5,33.2-31.8,53.7-32.9c2.5-0.1,4.5-0.1,5.9,0"/>
<path fill="none" d="M676.4,448.3c-1.9,9.3-5.4,22.9-12.2,38.4c-7.1,16.4-15.7,30.2-15.7,30.2c0,0,8.4-20.7,26.3-40.4
	c1.4-1.6,11.4-9.8,31.4-26.3c17.5-14.4,27-22.1,37.3-19.6c2.4,0.6,4.3,1.6,5.5,2.4"/>
<path fill="none" d="M761.2,433.1c-11.2,21.3-16.5,38.4-19.2,49.8c-1.6,6.9-2.9,14.1,1.2,18.4c3.9,4.2,11.6,4.2,16.9,2
	c7.5-3.1,10.8-10.7,11.8-12.9c12.3-27.2,49.1-68.5,49.4-68.2c0.3,0.2-20.1,26.4-35.7,64.7c-9,22-5.6,21.6-21.2,71.4
	c-14.4,46-22.1,61.9-32.9,76.9c-6.5,8.9-11.8,23.7-25.9,28.2c-1.5,0.5-14.2,4.3-22-2.4c-9.6-8.3-4.8-26.5-3.5-31.4
	c4.8-18.5,17.9-30.8,29.4-39.6c30.3-23.1,53-23.8,109-44.7c27-10.1,21.6-9.8,46.7-19.2c65.6-24.5,121.2-33,145.9-36.1
	c0,0,45.1-9.2,105.9-4.3c1.9,0.1,5.5,0.6,9.5,2.7c6.4,3.5,9.7,9.7,11.3,13.6"/>
<path fill="none" d="M1011.6,393.9c-0.7-9.4-0.9-23.5,2.3-40c7.1-37.4,26.1-60.8,34-70.2c17.6-21.1,30.1-25.1,36.3-26.4
	c4.7-1,14.4-3,21.9,2.3c8.1,5.7,9.3,16.7,9.8,24.2c2.4,33.9-4.9,63.8-6.8,71.8c-1.9,8-5,29-11.3,71c-7.9,52.9-11.8,104-9.8,104.2
	c1.5,0.2,3.4-30.5,13.6-67.2c25.1-90.3,85.8-162.7,95.2-157.9c2.3,1.2,1.3,6.7-0.8,18.1c-16.9,92.4-26.6,116.4-26.4,152.6
	c0.2,38.5,11.5,70.5,13.6,70.2c1.7-0.2-1.2-20.1,0-42.3c2-36.2,14.1-62.8,31-96.7c37.8-76.1,56.7-114.1,87.6-157.9
	c19.2-27.2,46-61.7,81.6-98.9"/>
<path fill="none" d="M1341.6,242.9c-6.4,8.2-15.2,20.2-24.2,35.5c-11,18.7-18.4,35.5-34,78.5c-17,47-30,83-26.4,84.6
	c1.8,0.8,8.8-9.8,22.7-31c9-13.7,20-31.3,39.3-46.1c3.9-3,8.1-5.8,9.8-4.5c3,2.2-3.4,14.6-12.1,40c-7.7,22.5-7.7,27.4-5.3,29.5
	c1.7,1.5,5.8,2.7,18.1-3.8c40.4-21.2,85-73.9,83.8-74.8c-0.7-0.6-19.9,18.7-30.2,45.3c-2.9,7.4-10,25.8-3.8,31
	c5,4.1,16.9-1.6,45.3-20.4c37.6-24.8,57.6-35.9,68-49.1c7-8.9,7.9-12.7,24.2-49.8c21-48.1,36.9-81.6,37-81.6
	c2.4,1-62.3,143.1-68.7,160.1c-0.4,1-1.8,4.7-2.3,9.8c-0.1,1-1.5,16.5,4.5,21.9c7.8,7,27.4-3.4,40.8-10.6
	c12.3-6.5,35.8-19.1,57.5-44.6c1.2-1.4,8.6-9.5,23.3-25.7c9.9-10.9,16.5-17.9,24.9-17.4c0.8,0,7,0.5,9.1,4.5
	c3.3,6.4-6.4,17.1-11.3,22.7c-5.5,6.1-14.2,15.8-28.7,20.4c-8.5,2.7-12.2,1.5-15.1,5.3c-5.2,6.7-1.8,21.5,5.8,25.2
	c6.8,3.3,14.2-3.5,33.1-15.9c41.4-27.3,56-27.9,78.9-53.1c3.8-4.2,6.8-7.9,8.6-10.3"/>
<path fill="none" d="M1433,313.1c-3,4.5-6,9.1-9,13.6"/>
<path fill="none" d="M1283.6,319c17.8,0.9,46.6,1.6,81.9-1.5c49.7-4.3,74-12.6,131.1-21.1c22-3.2,55.2-7.5,96.7-9.8"/>
<path fill="none" d="M366.3,923.7c48.5-41.7,94.8-65.8,126.8-79.6c45.1-19.4,84.3-24.9,162.6-35.8c16-2.2,41.7-5.4,62.9,9.6
	c3.3,2.3,17.1,12.6,22.7,30.6c7.6,24.6-4.7,49-15.7,67.3c-30.2,50.1-79.1,102.8-190.6,178.4c-43.3,29.3-57.3,35.9-62.1,31.5
	c-8.8-8.2,19.4-49.4,54.2-109.3c23.7-40.8,53.6-95.8,84.8-163.5"/>
<path fill="none" d="M724.8,987.5c5.5,0.6,13,0.4,21-2.6c14.5-5.6,23.9-18.3,27.1-30.6c1.2-4.7,3-11.7,0-14c-5.3-4-22.6,9.3-33.2,21
	c-7.6,8.3-25.3,27.6-19.2,44.6c2.1,6,7.5,12.5,14.3,13.6c9.1,1.5,17.5-7,20.7-10.1c28.4-28.3,82.8-68.4,88.3-63.8
	c2.2,1.8-4,9.8-9.6,29.7c-2.8,10-9.1,32.5-4.4,35c7.8,4,43.4-46.7,67.3-80.8c0.1-0.2,0.3-0.5,0.7-1c7-10,8.5-11.2,8.1-11.7
	c-0.9-1.2-12.8,1.6-16.8,10.6c-4.3,9.6,1.8,23,8.5,24.3c3,0.6,4.8-1.5,9.1-4c15.7-9,25.5,0,37.7-8c6.8-4.5,4-7.5,13.8-15.8
	c1-0.9,16.1-13.5,21.4-9.6c4.3,3.1,0,15.5-0.7,17.4c-0.7,1.8-7.6,20.2-25.8,26.3c-10.3,3.5-14.7-0.2-20.7,4.7
	c-6.8,5.4-10,16.9-6,22.5c5.7,8,24.9,2.8,33.6,0.4c10.9-3,37.8-11.9,86.5-63.7c12.4-13.2,32-41.6,71.2-98.3c6.3-9.1,18.5-27,14-31.9
	c-2.3-2.5-8.2-0.6-10.2,0c-17.4,5.6-26.3,25.6-31,35.8c-22.6,48.9-26.2,35.6-45,81.3c-10.3,25-27.1,65.9-15.5,74.5
	c3.8,2.9,9.5,1.3,16-0.5c19.4-5.3,31.2-19.6,36.3-25.7c31.7-37.4,58.1-55.1,57.6-55.7c-0.5-0.5-20.6,13.5-29,37.3
	c-3.5,9.9-7,27.2,0,31.9c6.1,4.1,17.6-3,21.3-5.3c29.5-18.4,40.5-61.4,35.3-64.4c-2.6-1.5-11.5,5.9-10.6,11.1
	c0.8,5.4,12,9.2,21.3,8.2c6-0.6,9.7-3.1,19.4-9.7c18.7-12.8,30.5-21.4,31.5-20.3c0.7,0.7-4.4,4.6-7.3,12.6c-2.4,6.5-2,12.1-1.9,14
	c0.6,16.1-10.7,51-27.1,119.6c-7.6,31.6-11.6,51.1-18.9,51.3c-3.7,0.1-7.6-4.8-9.2-8.7c-2.2-5.5-0.6-11,2.4-19.4
	c4.8-13.5,7.3-20.3,9.7-24.7c12.2-22.2,11.9-31.7,48.9-103.1c0.8-1.5,11-20.8,29.5-37.3c6.2-5.5,13.9-11.2,22.3-9.7
	c1,0.2,6.4,1.2,8.7,5.3c1.7,3.1,1.5,7.9-6.8,21.8c-13.3,22.3-29,41.6-29,41.6c-3.2,3.9-5.1,6.1-4.4,7.3c2.1,3.5,25.5-4.7,45-16.5
	c19.6-11.9,42.6-31.8,57.6-51.3c4-5.2,10.6-10.9,23.7-22.3c5.1-4.4,9.9-8.3,13.6-6.8c4.1,1.7,4.3,9.3,4.4,9.7
	c0.2,8.3-6.2,14.4-14,21.8c-8.6,8.2-15.1,14.3-25.2,16c-4.9,0.8-8.2,0.1-12.1,2.9c-3.8,2.7-7.1,8-6.3,13.6c1,6.9,7.8,11.1,12.6,12.6
	c9,2.7,17.6-2.1,30.5-9.7c8.4-4.9,8.4-6.1,20.8-14.5c20.8-14.2,20.5-10.7,28.1-17.9c6.7-6.4,11-13,22.8-21.3
	c6.1-4.3,7.5-4.4,8.2-3.9c0.7,0.5,2.3,3-14.5,37.3c-6.6,13.5-10.7,21-10.2,21.3c1.1,0.7,14.6-27.4,37.8-49.4
	c20.8-19.7,43.8-29.3,60-34.4"/>
</svg>
