<?xml version="1.0" encoding="UTF-8"?>
<svg id="main_logo" xmlns="http://www.w3.org/2000/svg" width="222" height="59" xmlns:xlink="http://www.w3.org/1999/xlink" version="1.1" viewBox="0 0 222 59">
  <!-- Generator: Adobe Illustrator 29.2.1, SVG Export Plug-In . SVG Version: 2.1.0 Build 116)  -->
  <defs>
    <style>
      .st0 {
        filter: url(#drop-shadow-1);
      }

      .st1 {
        fill: #fff;
      }
    </style>
    <filter id="drop-shadow-1" x="-9" y="-9" width="240" height="79" filterUnits="userSpaceOnUse">
      <feOffset dx="0" dy="1"/>
      <feGaussianBlur result="blur" stdDeviation="3"/>
      <feFlood flood-color="#000" flood-opacity=".5"/>
      <feComposite in2="blur" operator="in"/>
      <feComposite in="SourceGraphic"/>
    </filter>
  </defs>
  <g id="eb6e6202-35d6-4eb6-9c55-39528cf7c89e" class="st0">
    <g id="fa32c6b6-3e67-4d9a-bec2-648ee2e859f5">
      <g id="_x39_d2c00a5-2026-4c59-9614-4f004783463b">
        <g id="fa0f2475-cbb9-4889-9cca-d596cc88eec3">
          <path id="_x30_303e172-6996-4cc0-abfa-494f22517469" class="st1" d="M73,19.7c0-.3.3-.6.6-.6h2.8c.3,0,.6.2.6.6,0,0,0,0,0,0v7.8h9.6v-7.8c0-.3.2-.6.5-.6,0,0,0,0,0,0h2.7c.3,0,.6.3.6.6v19.6c0,.3-.3.6-.6.6h-2.7c-.3,0-.6-.2-.6-.6,0,0,0,0,0,0v-8.2h-9.6v8.2c0,.3-.2.6-.5.6,0,0,0,0,0,0h-2.7c-.3,0-.6-.3-.6-.6v-19.5Z"/>
          <path id="_x38_14a7fee-b81d-4080-b33f-d5f07e205087" class="st1" d="M105.9,36.3c3.8,0,6.8-3,6.8-6.8s-3-6.8-6.8-6.8-6.8,3-6.8,6.8c0,0,0,0,0,0,0,3.7,3,6.7,6.8,6.8M105.9,18.9c5.9,0,10.7,4.7,10.7,10.6,0,5.9-4.7,10.7-10.6,10.7-5.9,0-10.7-4.7-10.7-10.6,0-5.9,4.7-10.6,10.6-10.7,0,0,0,0,0,0"/>
          <path id="eb3d07df-f8e3-4af8-bc98-f28e180e0b69" class="st1" d="M121.9,19.7c0-.3.3-.6.6-.6h2.7c.3,0,.6.3.6.6v16.6h7.5c.3,0,.6.2.6.5,0,0,0,0,0,0v2.4c0,.3-.2.6-.5.6,0,0,0,0,0,0h-10.8c-.3,0-.6-.3-.6-.6v-19.6Z"/>
          <path id="acdaa3f5-8713-4145-9286-955563f57fbc" class="st1" d="M139.6,19.7c0-.3.3-.6.6-.6h2.7c.3,0,.6.3.6.6v19.6c0,.3-.3.6-.6.6h-2.7c-.3,0-.6-.3-.6-.6v-19.6Z"/>
          <path id="_x38_c966982-84c1-4766-832a-7bd02b8929d8" class="st1" d="M154.1,22.7h-4.5c-.3,0-.6-.2-.6-.5,0,0,0,0,0,0v-2.4c0-.3.2-.6.5-.6,0,0,0,0,0,0h12.9c.3,0,.6.2.6.5,0,0,0,0,0,0v2.4c0,.3-.2.6-.5.6,0,0,0,0,0,0h-4.5v16.6c0,.3-.3.5-.6.6h-2.7c-.3,0-.5-.3-.6-.6v-16.6Z"/>
          <path id="be65512f-31fd-4aca-877d-41ea2f34ae3e" class="st1" d="M168.7,19.7c0-.3.3-.6.6-.6h2.7c.3,0,.6.3.6.6v19.6c0,.3-.3.6-.6.6h-2.7c-.3,0-.6-.3-.6-.6v-19.6Z"/>
          <path id="a84c39fd-aae0-429a-a55f-0a684dfdd2ed" class="st1" d="M188.7,36.3c3.8,0,6.8-3,6.8-6.8s-3-6.8-6.8-6.8c-3.8,0-6.8,3-6.8,6.8,0,0,0,0,0,0,0,3.7,3,6.7,6.8,6.8M188.7,18.9c5.9,0,10.7,4.7,10.7,10.6,0,5.9-4.7,10.7-10.6,10.7-5.9,0-10.7-4.7-10.7-10.6,0-5.9,4.7-10.6,10.6-10.7,0,0,0,0,0,0"/>
          <path id="_x31_c80e30c-c458-4d94-b453-e338e9b07969" class="st1" d="M204.5,19.4c0-.3.3-.5.6-.5h.7l12.3,13h0v-12.2c0-.3.3-.6.6-.6h2.7c.3,0,.6.3.6.6v19.9c0,.3-.3.5-.6.5h-.7l-12.3-13.6h0v12.7c0,.3-.3.6-.6.6h-2.7c-.3,0-.6-.3-.6-.6v-19.9Z"/>
          <g id="d78284f9-c3a8-4d6e-a47e-96a3c878144f">
            <path id="_x39_81e7d5a-3c54-44b9-9f00-ce842e5a5723" class="st1" d="M29.6,57.1c-15.2,0-27.6-12.4-27.6-27.6S14.3,1.9,29.6,1.9s27.6,12.4,27.6,27.6c0,15.2-12.4,27.6-27.6,27.6M29.6,0C13.3,0,0,13.2,0,29.5s13.2,29.5,29.5,29.5,29.5-13.2,29.5-29.5h0C59,13.2,45.8,0,29.6,0"/>
          </g>
          <path id="_x35_16ecc85-873e-49b8-b4a9-1c4fbe0d08dc" class="st1" d="M38.1,41.1v-15.4l5.8-3.4v15.4l-5.8,3.4ZM24.5,43.1v-5.2l2.2-1.2v-4.7l3.9,2.2v-4.2l-3.9-2.2v-10.3l-2.5-1.4,5.4-3.1,13.5,7.8-5.4,3.1-3.3-2-3.8,2.2,3.8,2.2v17.1l-4.8,2.8-5.1-2.9ZM15.2,22.3l7.7,4.4v15.4l-7.7-4.3v-15.5ZM22.9,19.6v4.9l-6.7-3.8,4.3-2.5,2.4,1.4ZM13.3,20.1v18.8l16.3,9.4,16.3-9.4v-18.8l-16.3-9.4-16.3,9.4Z"/>
        </g>
      </g>
    </g>
  </g>
</svg>