<?xml version="1.0" encoding="utf-8"?>
<!-- Generator: Adobe Illustrator 26.0.2, SVG Export Plug-In . SVG Version: 6.00 Build 0)  -->
<svg version="1.1" id="Layer_1" xmlns="http://www.w3.org/2000/svg" xmlns:xlink="http://www.w3.org/1999/xlink" viewBox="0 0 283.87 33.89">
    <defs>
      <style>
        .cls-1 {
          fill: none;
          stroke-miterlimit: 10;
        }
      </style>
    </defs>
    <path
      class="cls-1"
      d="M.18,14.91c2.72,1,4.6,1.86,6.55,2.46,4.33,1.32,9,2,13,3.91,10.52,5,21.91,6.21,33.11,7.6,14.31,1.77,28.78,2.2,43.18,3.27,1.92.15,3.81,1,5.72,1,7.35.14,14.73.46,22.06,0s14.52-1.76,21.79-2.61c4.35-.52,8.72-1,13.1-1.27,3.42-.21,6.87-.05,10.31-.06a8.9,8.9,0,0,0,1.46,0c9.63-1.56,19.26-3.19,28.9-4.69,6.88-1.07,13.86-1.66,20.67-3,8.84-1.78,17.76-3.53,26.3-6.36C257.9,11.29,269.14,6.47,280.52,2a30.36,30.36,0,0,0,3.12-1.6"
    />
  </svg>

